<svg id="Layer_2" data-name="Layer 2" xmlns="http://www.w3.org/2000/svg" viewBox="0 0 561.65 364.2">
  <defs>
    <style>
        .cls-1 {
            fill: #e0f5f3; /* Um verde claro */
        }

        .cls-2 {
            fill: #cdece9; /* Um tom um pouco mais escuro que o anterior */
        }

        .cls-3 {
            fill: #a2dad4; /* Verde água suave */
        }

        .cls-4 {
            fill: #ffffff; /* Branco */
        }

        .cls-5 {
            fill: #bae7e1; /* Um verde menta */
        }

        .cls-6 {
            fill: #11867a; /* Cor mais escura: verde esmeralda profundo */
        }

        .cls-7 {
            fill: #4cc5b7; /* Um verde turquesa */
        }

        .cls-8 {
            fill: #90d7d1; /* Um verde claro */
        }

        .cls-9 {
            fill: #c2f0ec; /* Verde pálido */
        }

        .cls-10 {
            fill: #1e7a6f; /* Verde profundo, mas não tão escuro quanto o mais escuro */
        }

        .cls-11 {
            fill: #fcdb76; /* Uma cor amarela suave, mantendo um pouco do laranja original */
        }

        .cls-12 {
            fill: #f4b96e; /* Um laranja mais suave */
        }

        .cls-13 {
            fill: #ffeab0; /* Amarelo muito claro, quase creme */
        }

        .cls-14 {
            fill: #f4c79e; /* Um laranja suave */
        }

        .cls-15 {
            fill: #ffdab0; /* Amarelo-pêssego claro */
        }

        .cls-16 {
            fill: #fcac8a; /* Laranja claro */
        }

        .cls-17 {
            fill: #40c4ba; /* Verde água médio */
        }

        .cls-18 {
            fill: #3bb7af; /* Verde-azulado médio */
        }

        .cls-19 {
            fill: #1e5047; /* Verde profundo */
        }

        .cls-20 {
            fill: #2a6b62; /* Verde escuro, ligeiramente mais claro que o mais escuro */
        }

        .cls-21 {
            fill: #ffcfaa; /* Amarelo pêssego */
        }

        .cls-22 {
            fill: #3caaa2; /* Um verde-água */
        }

        .cls-23 {
            fill: #5bb3ab; /* Um verde médio */
        }
    </style>
  </defs>
  <path class="cls-1" d="M177.38,301.15c-55.08.21-108.11-36.46-124.65-86.21-6.23-18.76-6.49-41.88,8.77-55.22,11.88-10.38,29.36-11.71,45.3-14.25s33.68-8.58,39.45-22.87c4.33-10.73.43-22.64-.51-34.09C143.4,60.11,161.82,31.23,189.45,20s62.45-4.08,82.63,17c8,8.37,13.7,18.46,21,27.37s17,17,28.85,18.58c20.37,2.81,37.25-13.56,55.41-22.74,33.64-17,79.76-7.08,102.32,22,9.33,12,14.93,26.71,26.21,37.15,11,10.16,26.1,15.18,38.24,24.06,27.4,20,35.23,58.68,22.35,89.1s-43.29,52.27-76.56,61.32-69,6.52-102.62-1.42c-13.45-3.18-27.25-7.24-40.93-5.05-14.34,2.29-26.37,11.12-39,17.94-45.22,24.39-104.71,22.86-148.46-3.82Z" transform="translate(-23.29)" />
  <path class="cls-2" d="M553.24,352.35c0,6.54-111.37,11.85-248.75,11.85S55.74,358.89,55.74,352.35s111.37-11.86,248.75-11.86S553.24,345.8,553.24,352.35Z" transform="translate(-23.29)" />
  <path class="cls-3" d="M56.44,166c0,.25,0,.49,0,.73-.88,30,2.2,53.4,7.41,71.62l15.46,9.61-12.72-2-.36-.06c6.9,20,16.43,33,25.44,41.29A66,66,0,0,0,107.1,298l.86.42c.72.35,1.41.65,2.07.93l8.5.45c.12-.4.23-.79.33-1.18s.14-.5.21-.75.17-.66.26-1c10-38.73-2.62-69.63-19.17-91.65A2.39,2.39,0,0,0,100,205a149.29,149.29,0,0,0-17.88-19.66l-3.76,9.57-.54-13.41a147.37,147.37,0,0,0-20.89-15.25C56.61,166,56.44,166,56.44,166Z" transform="translate(-23.29)" />
  <polygon class="cls-4" points="32.84 166.09 33.12 166.68 50.59 203.25 50.91 203.9 55.66 213.87 55.83 214.2 71.01 245.99 71.03 246.03 95.77 297.84 96.15 298.62 96.74 299.85 97.48 299.89 96.89 298.66 96.03 296.86 71.62 245.74 71.16 244.79 33.64 166.24 33.43 165.8 32.84 166.09" />
  <rect class="cls-4" x="67.95" y="193.7" width="0.57" height="26.29" transform="translate(-164.14 145.81) rotate(-55.47)" />
  <rect class="cls-4" x="65.46" y="187.7" width="0.57" height="20.6" transform="translate(-157.95 140) rotate(-55.49)" />
  <rect class="cls-4" x="76.53" y="225.24" width="41.43" height="0.57" transform="matrix(0.13, -0.99, 0.99, 0.13, -162.21, 292.97)" />
  <path class="cls-5" d="M122,306.41s-20.16,9.53-48.84-7.57l9.3-4.42L67.23,295C56,287.2,43.75,275.27,31,257.31l3.55-1.69-4.61.19q-3.23-4.6-6.48-9.75a111.83,111.83,0,0,1,20.46.65l6.18,8.37-1.75-7.77C73,251,108.81,263.94,122,306.41Z" transform="translate(-23.29)" />
  <rect class="cls-4" x="73.15" y="217.37" width="0.65" height="115.86" transform="translate(-224.57 199.81) rotate(-59.69)" />
  <rect class="cls-4" x="35.14" y="261.96" width="14.4" height="0.6" transform="translate(-49.96 5.72) rotate(-5.89)" />
  <rect class="cls-4" x="39.52" y="266.58" width="16.96" height="0.6" transform="translate(-69.37 12.56) rotate(-10.1)" />
  <path class="cls-6" d="M98.39,269.65l.5-.57a88.21,88.21,0,0,0-30.38-17.29l-.25.71A87.35,87.35,0,0,1,98.39,269.65Z" transform="translate(-23.29)" />
  <rect class="cls-7" x="94.22" y="78.11" width="140.09" height="271.48" rx="6.54" />
  <rect class="cls-8" x="88.2" y="78.11" width="140.09" height="271.48" rx="6.54" />
  <path class="cls-9" d="M121.6,110.3V315.12a7.32,7.32,0,0,0,7.06,7.55H235.38a7.32,7.32,0,0,0,7.06-7.55V110.3a7.32,7.32,0,0,0-7.06-7.55H128.66A7.32,7.32,0,0,0,121.6,110.3Z" transform="translate(-23.29)" />
  <path class="cls-4" d="M118.54,315.12V110.3a8.92,8.92,0,0,1,8.76-9.06H236.74a8.92,8.92,0,0,1,8.76,9.06V315.12a8.92,8.92,0,0,1-8.76,9.06H127.3A8.92,8.92,0,0,1,118.54,315.12Zm8.76-210.86a5.91,5.91,0,0,0-5.74,6V315.12a5.91,5.91,0,0,0,5.74,6H236.74a5.91,5.91,0,0,0,5.74-6V110.3a5.91,5.91,0,0,0-5.74-6Z" transform="translate(-23.29)" />
  <path class="cls-10" d="M245.05,350.12H141.52v-1.06H245.05a6,6,0,0,0,6-6V84.65a6,6,0,0,0-6-6H118V77.58h127a7.07,7.07,0,0,1,7.06,7.07v258.4A7.07,7.07,0,0,1,245.05,350.12Z" transform="translate(-23.29)" />
  <rect class="cls-10" x="87.67" y="93.82" width="1.06" height="61.42" />
  <path class="cls-11" d="M321.28,63.77a32.34,32.34,0,1,0,33.24,31.41A32.33,32.33,0,0,0,321.28,63.77Zm26.94,31.59a26,26,0,1,1-27.48-25.25l.72,0a26.06,26.06,0,0,1,26.72,24.57C348.2,94.88,348.21,95.12,348.22,95.36Z" transform="translate(-23.29)" />
  <path class="cls-12" d="M348.18,94.65c0,.23,0,.47,0,.71a26,26,0,1,1-27.48-25.25l.72,0A26.06,26.06,0,0,1,348.18,94.65Z" transform="translate(-23.29)" />
  <path class="cls-11" d="M321.66,116.06l-.27-4.89a14.08,14.08,0,0,1-7.53-1.72l1-3.31a12.91,12.91,0,0,0,7.09,1.7c3.44-.19,5.65-2.31,5.5-5.07s-2.13-4.2-5.79-5.45c-5.05-1.67-8.22-3.72-8.46-7.94-.22-4,2.47-7.22,6.88-8.19l-.27-4.89,3-.17.26,4.69a12.93,12.93,0,0,1,6.39,1.35l-1,3.26a11.8,11.8,0,0,0-6.19-1.31c-3.73.21-5,2.52-4.91,4.45.14,2.52,2,3.68,6.31,5.19,5.1,1.76,7.76,4.13,8,8.44.21,3.83-2.25,7.56-7.19,8.66l.28,5Z" transform="translate(-23.29)" />
  <path class="cls-6" d="M346.76,88.21l-.21-.62a25.75,25.75,0,0,0-14.69-15.37l.26-.65A26.39,26.39,0,0,1,347.2,87.31l.23.68Z" transform="translate(-23.29)" />
  <path class="cls-6" d="M331.86,72.22a25.64,25.64,0,0,0-17.38-.63l-.22-.67a26.36,26.36,0,0,1,17.86.65Z" transform="translate(-23.29)" />
  <path class="cls-6" d="M345.75,108.11l-.63-.32a25.41,25.41,0,0,0,2.78-9.63l.71.06A26.19,26.19,0,0,1,345.75,108.11Z" transform="translate(-23.29)" />
  <path class="cls-6" d="M341.88,70.92a32.07,32.07,0,0,0-8.62-4.82l.26-.71a32.82,32.82,0,0,1,8.82,4.93Z" transform="translate(-23.29)" />
  <path class="cls-6" d="M341.93,122.2l-.46-.61a32,32,0,0,0,6.71-44.1l.62-.44a32.73,32.73,0,0,1-6.87,45.15Z" transform="translate(-23.29)" />
  <path class="cls-11" d="M399.59,123.76a27.3,27.3,0,1,0,25,29.4A27.3,27.3,0,0,0,399.59,123.76Zm19.73,29A22,22,0,1,1,398.56,129l.61,0a22,22,0,0,1,20.18,23.06Z" transform="translate(-23.29)" />
  <path class="cls-12" d="M419.36,152.13c0,.2,0,.4,0,.6A22,22,0,1,1,398.56,129l.61,0A22,22,0,0,1,419.36,152.13Z" transform="translate(-23.29)" />
  <path class="cls-11" d="M395.13,167.69l.22-4.13a11.94,11.94,0,0,1-6.16-2.13l1.13-2.69a10.88,10.88,0,0,0,5.79,2.07c2.9.15,5-1.42,5.08-3.75s-1.4-3.72-4.36-5.11c-4.09-1.86-6.56-3.87-6.38-7.43.18-3.39,2.73-5.84,6.53-6.25l.21-4.13,2.54.13-.21,4a10.89,10.89,0,0,1,5.24,1.71l-1.17,2.64a10,10,0,0,0-5.07-1.66c-3.15-.17-4.44,1.65-4.52,3.29-.12,2.12,1.34,3.27,4.82,4.93,4.12,1.94,6.13,4.17,5.94,7.81-.17,3.23-2.58,6.14-6.83,6.61l-.22,4.25Z" transform="translate(-23.29)" />
  <path class="cls-6" d="M418.74,146.6a5.23,5.23,0,0,0-.12-.54,21.71,21.71,0,0,0-10.92-14.24l.28-.53a22.35,22.35,0,0,1,11.22,14.59l.13.6Z" transform="translate(-23.29)" />
  <path class="cls-6" d="M407.7,131.82a21.65,21.65,0,0,0-14.54-2.12l-.12-.58A22.27,22.27,0,0,1,408,131.29Z" transform="translate(-23.29)" />
  <path class="cls-6" d="M416.08,163.22l-.49-.33a21.6,21.6,0,0,0,3.21-7.83l.58.11A22,22,0,0,1,416.08,163.22Z" transform="translate(-23.29)" />
  <path class="cls-6" d="M416.23,131.64a27,27,0,0,0-6.8-4.83l.28-.57a27.26,27.26,0,0,1,7,4.94Z" transform="translate(-23.29)" />
  <path class="cls-6" d="M411.59,174.69l-.33-.55a27,27,0,0,0,9.66-36.41l.56-.32a27.66,27.66,0,0,1-9.89,37.28Z" transform="translate(-23.29)" />
  <path class="cls-13" d="M379.12,135.26a7.14,7.14,0,0,1,2.07,4.24h0a7.14,7.14,0,0,1,4.14-2.27h0a7.2,7.2,0,0,1-2.07-4.24h0A7.14,7.14,0,0,1,379.12,135.26Z" transform="translate(-23.29)" />
  <path class="cls-14" d="M269,226.07c8.88-1.36,41.17-13.7,41.17-13.7s-2.38-4.61-10.92-3.39-30.39,6.78-30.39,6.78Z" transform="translate(-23.29)" />
  <path class="cls-11" d="M273.29,150.85a33.93,33.93,0,1,0,32.77,35A33.93,33.93,0,0,0,273.29,150.85Zm26.16,34.82a27.3,27.3,0,1,1-27.14-28.22l.76,0a27.33,27.33,0,0,1,26.39,27.46C299.46,185.18,299.46,185.43,299.45,185.67Z" transform="translate(-23.29)" />
  <path class="cls-12" d="M299.46,184.93c0,.25,0,.5,0,.74a27.3,27.3,0,1,1-27.14-28.22l.76,0A27.32,27.32,0,0,1,299.46,184.93Z" transform="translate(-23.29)" />
  <path class="cls-11" d="M270.3,205.63l0-5.14a14.75,14.75,0,0,1-7.77-2.28l1.24-3.4a13.64,13.64,0,0,0,7.32,2.23c3.61,0,6.06-2,6.08-4.95s-1.95-4.54-5.71-6.09c-5.18-2.06-8.37-4.42-8.34-8.85,0-4.22,3.05-7.41,7.74-8.14l0-5.14,3.15,0,0,4.93a13.59,13.59,0,0,1,6.6,1.83L279.35,174a12.24,12.24,0,0,0-6.4-1.77c-3.92,0-5.41,2.3-5.42,4.34,0,2.64,1.86,4,6.27,5.84,5.23,2.17,7.86,4.83,7.83,9.35,0,4-2.85,7.77-8.09,8.6l0,5.29Z" transform="translate(-23.29)" />
  <path class="cls-6" d="M298.38,178.09q-.08-.33-.18-.66a26.93,26.93,0,0,0-14.38-17l.32-.67a27.68,27.68,0,0,1,14.76,17.46c.08.27.15.5.2.73Z" transform="translate(-23.29)" />
  <path class="cls-6" d="M283.82,160.39a26.91,26.91,0,0,0-18.16-1.79l-.18-.72a27.64,27.64,0,0,1,18.66,1.84Z" transform="translate(-23.29)" />
  <path class="cls-6" d="M296,198.87l-.63-.38a26.86,26.86,0,0,0,3.53-9.9l.73.11A27.36,27.36,0,0,1,296,198.87Z" transform="translate(-23.29)" />
  <path class="cls-6" d="M294.4,159.67a33.54,33.54,0,0,0-8.72-5.6l.32-.73a34.43,34.43,0,0,1,8.92,5.74Z" transform="translate(-23.29)" />
  <path class="cls-6" d="M291.13,213.37l-.44-.66A33.53,33.53,0,0,0,300.57,167l.67-.43a34.34,34.34,0,0,1-10.11,46.84Z" transform="translate(-23.29)" />
  <path class="cls-15" d="M281.09,208.44s-.81-9.43-14.38-10c-10.51-.48-14-6.24-22.65-7.06-8.38-.78-17,3.4-17,3.4a35.36,35.36,0,0,1-8.45,2.11,25.8,25.8,0,0,1-14.47-2.93l.13,29s22.11-1.9,26.72-.81,26.18,10.44,35.07,9.08,41.17-13.7,41.17-13.7-2-5.42-10.52-4.2-16.14,3.93-18.71,4.07a12.76,12.76,0,0,1-4.89-.82L252.67,208A139.68,139.68,0,0,0,281.09,208.44Z" transform="translate(-23.29)" />
  <path class="cls-10" d="M166.44,208c0,7.47.3,14.65.86,21.34,0,.05,0,.1,0,.15,2.16,25.67,8.09,44.09,15.07,44.09,7.23,0,13.33-19.69,15.3-46.72v-.28l.35-31.44v-.25c-1.48-29.94-7.93-52.47-15.65-52.47-7.51,0-13.8,21.33-15.5,50,0,.05,0,.09,0,.14C166.59,197.5,166.44,202.65,166.44,208Z" transform="translate(-23.29)" />
  <path class="cls-10" d="M200.49,234c-3.08,27.62-10.79,45.93-19.52,45.93-7.44,0-14.15-13-17.92-34.74l1-.13c3.65,21,10.14,34,17,34,8.05,0,15.52-18.31,18.52-44.95Z" transform="translate(-23.29)" />
  <path class="cls-10" d="M160.47,222.14c-.26-4.62-.4-9.39-.4-14.19,0-5.59.19-11.25.57-16.82a.32.32,0,0,1,0-.08V191a197.08,197.08,0,0,1,2.65-21.69l1,.14A197.76,197.76,0,0,0,161.62,191s0,0,0,.08v.06c-.38,5.56-.57,11.2-.57,16.77,0,4.79.13,9.54.39,14.14Z" transform="translate(-23.29)" />
  <path class="cls-10" d="M200.61,183.18l-1,0C196.76,156,189.21,136.83,181,136.83c-5.14,0-10.23,7.53-14,20.67l-.94-.21C170,143.54,175.27,136,181,136c4.87,0,9.4,5.41,13.1,15.62C197,159.8,199.32,170.84,200.61,183.18Z" transform="translate(-23.29)" />
  <path class="cls-13" d="M295.18,86.07a12.23,12.23,0,0,1,5.56,5.83h0a12.3,12.3,0,0,1,5.56-5.84h0a12.21,12.21,0,0,1-5.56-5.82h0A12.19,12.19,0,0,1,295.18,86.07Z" transform="translate(-23.29)" />
  <path class="cls-13" d="M304,101.35a7.08,7.08,0,0,1,3.23,3.39h0a7.13,7.13,0,0,1,3.23-3.39h0A7.13,7.13,0,0,1,307.25,98h0A7.08,7.08,0,0,1,304,101.35Z" transform="translate(-23.29)" />
  <path class="cls-16" d="M204.21,199.94l.1,23s3.64-.31,8.27-.61c-.24-5.31-1.15-18.68-4.42-25C207.34,195.82,205.94,197,204.21,199.94Z" transform="translate(-23.29)" />
  <path class="cls-6" d="M270.24,209.33a169.41,169.41,0,0,1-17.49-1l.07-.7a154.92,154.92,0,0,0,20.72,1l0,.7C272.48,209.32,271.37,209.33,270.24,209.33Z" transform="translate(-23.29)" />
  <path class="cls-6" d="M277.52,217.75a13,13,0,0,1-4.5-.85l-8.34-3.48.27-.65,8.34,3.48A12.58,12.58,0,0,0,278,217a39,39,0,0,0,5.56-1.24A121.31,121.31,0,0,1,296.7,213c8.73-1.24,10.88,4.38,10.9,4.43l-.66.25c-.08-.21-2-5.14-10.14-4a115.6,115.6,0,0,0-13,2.82,39.13,39.13,0,0,1-5.71,1.25Z" transform="translate(-23.29)" />
  <path class="cls-6" d="M221,198.47l-.39-.59c5.09-3.36,12.77-5.54,12.85-5.56l.19.68C233.53,193,226,195.17,221,198.47Z" transform="translate(-23.29)" />
  <path class="cls-17" d="M208.77,221c-.24,2.19-.57,4.39-1,6.61l-6.94.71-2.16.22-1.22.12-29.57,3s0-.1,0-.16c-.61-8.17-.92-16.93-.92-26.06,0-6.11.15-12,.42-17.78,0-.33,0-.66,0-1,0-.05,0-.1,0-.15h0l30.37,2.81,1.06.09,2.33.22,6.56.6A101.46,101.46,0,0,1,208.77,221Z" transform="translate(-23.29)" />
  <path class="cls-18" d="M208.77,221q-.39,3.28-1,6.61l-7.21.71-1.84.18-1.66.16-29.15,2.89h-.15c-.07-.77-.14-1.56-.21-2.35a.71.71,0,0,1,0-.15c-.59-6.72-.9-13.94-.9-21.45,0-5.33.17-10.51.47-15.48V192q.14-2.18.3-4.29c0-.33,0-.66,0-1h0l3.17.28c.6,6.72,2.71,24.34,8.62,29.17,4.11,3.35,12.78,4.39,19.65,4.66,5.44.21,9.75-.06,9.75-.06Z" transform="translate(-23.29)" />
  <path class="cls-19" d="M462.78,119s-2.63-2-1.17-4.73c1.06-2,4.59-2.74,4.59-2.74-1.07,1.36-1.54,5.31-2.6,6.67Z" transform="translate(-23.29)" />
  <path class="cls-15" d="M471.57,146.07s4-8.86-.53-15.44l8.09-4.46s2.51,13.22,8.27,24.55C483,154.59,472.21,154.45,471.57,146.07Z" transform="translate(-23.29)" />
  <path class="cls-19" d="M471,130.63a13,13,0,0,1,2.14,7.3c3.86-2.72,7-8.77,7-8.77Z" transform="translate(-23.29)" />
  <path class="cls-15" d="M481,130.41c-1.45,1.84-7.8,7.14-12.18,6.57-5.52-.71-8.84-20.68-4.22-24.48,2.49-2,9.4-1.68,13.28,2.88S482.92,128,481,130.41Z" transform="translate(-23.29)" />
  <path class="cls-19" d="M447,329.92c15.44,6.72,29.52,0,29.52,0l-15.21-4.67Z" transform="translate(-23.29)" />
  <path class="cls-19" d="M522.63,322.15s-9.52,12-28.49,8.81l.31-11.81Z" transform="translate(-23.29)" />
  <path class="cls-15" d="M523.12,330.27l-4.6-10.15-11.1,3.78,5.88,9.37C515.8,336.92,523.05,334.83,523.12,330.27Z" transform="translate(-23.29)" />
  <path class="cls-15" d="M465.87,337.88l2-11.09H456.17l-.56,10.77C456.81,341.81,464.35,342.18,465.87,337.88Z" transform="translate(-23.29)" />
  <path class="cls-10" d="M522.63,322.15A68.48,68.48,0,0,1,494.14,331s-40.27-58.38-31.59-128.26h29.52S484.89,256.72,522.63,322.15Z" transform="translate(-23.29)" />
  <path class="cls-20" d="M471.1,281.79a225.29,225.29,0,0,0,14.7,34.91l9.57-65.86A202.22,202.22,0,0,1,492,227l-3-11.68Z" transform="translate(-23.29)" />
  <path class="cls-10" d="M446.68,330a110.09,110.09,0,0,0,29.53,0l16.2-95.69a37.93,37.93,0,0,0,8.74-18.14,28.59,28.59,0,0,0-.15-10.33,25.45,25.45,0,0,0-.78-3.06l-1-.15L487.1,201l-2.85-.39-22.12-3.07Z" transform="translate(-23.29)" />
  <path class="cls-20" d="M467.4,204.12c7.32,8.7,26.3,11.36,33.75,12.08a28.59,28.59,0,0,0-.15-10.33l-1.79-3.21h0L487.1,201l-2.85-.39Z" transform="translate(-23.29)" />
  <path class="cls-5" d="M459.31,202a41.4,41.4,0,0,0,5.77,2.89,72.06,72.06,0,0,0,8.94,3c15.12,4.09,32.17,4.77,32.17,4.77-6.37-21.3-1-40.74-5.46-56.09-3-10.41-12.81-15.27-12.81-15.27-3.3,2.2-11.94,6.14-15.6,2.83a1.07,1.07,0,0,0-1.58.12c-15.23,19.74-10.71,29-10.58,43.66A129.47,129.47,0,0,1,459.31,202Z" transform="translate(-23.29)" />
  <rect class="cls-4" x="449.62" y="270.58" width="74.42" height="0.78" transform="matrix(0.16, -0.99, 0.99, 0.16, 118.69, 708.58)" />
  <path class="cls-19" d="M462.91,114.59c-.69-2.19.69-3.11,2.28-4.78s4.2-1.81,6.41-1.36a10.82,10.82,0,0,1,5.59,2.77c2.64,2.64,3.22,9.81-1.41,10C468.46,121.57,464.11,118.36,462.91,114.59Z" transform="translate(-23.29)" />
  <path class="cls-19" d="M478.88,126c-1-3-3.44-4.8-5.29-7.35l-9.87-6.14c2.42-3.68,10-6.58,15-4.77,5.31,1.94,8.4,7.4,11.21,15.57a23.77,23.77,0,0,0,6.26,9.44c14.18,13.47,14.66,27.28,6,32.69-6.46,4-11.71,1.73-14.88-.52C477.71,158.08,477.74,132.94,478.88,126Z" transform="translate(-23.29)" />
  <path class="cls-19" d="M469.75,123.2a14.19,14.19,0,0,0,5.92-.5l-.18-.55c-.05,0-4.92,1.59-8.52-.5a8,8,0,0,1-3.65-5.63l-.57.12a8.53,8.53,0,0,0,3.93,6A8.94,8.94,0,0,0,469.75,123.2Z" transform="translate(-23.29)" />
  <path class="cls-15" d="M475.44,124a2.59,2.59,0,1,0,3-2.18A2.59,2.59,0,0,0,475.44,124Z" transform="translate(-23.29)" />
  <path class="cls-19" d="M503.12,349.57l13.81,0a1.41,1.41,0,0,0,1-.45l12.91-13.52a1.3,1.3,0,0,0,0-1.83l-5.92-5.72c-.72-.72-2.41-.55-2.33.47.38,4.95-5.49,5.79-9.09,5a.88.88,0,0,0-1,.63c-.52,1.85-1.18,6.11-2,7.25-1.5,2-3.77,2.46-5.56,3.39A3.61,3.61,0,0,0,503.12,349.57Z" transform="translate(-23.29)" />
  <path class="cls-4" d="M514.62,341.22a3.29,3.29,0,0,1-3.56-1.34l.45-.28a2.71,2.71,0,0,0,3,1.1Z" transform="translate(-23.29)" />
  <path class="cls-4" d="M513.15,343.65a3.3,3.3,0,0,1-3.4-1.27l.44-.29a2.77,2.77,0,0,0,2.86,1Z" transform="translate(-23.29)" />
  <path class="cls-4" d="M521.07,334.89a9.58,9.58,0,0,1-4,.69l0-.53s5.25.3,6.27-3.38l.51.14A4.67,4.67,0,0,1,521.07,334.89Z" transform="translate(-23.29)" />
  <rect class="cls-4" x="514.61" y="341.35" width="15.25" height="0.53" transform="translate(-110.66 475.06) rotate(-45.54)" />
  <path class="cls-19" d="M468.21,349.48l-30.13.11a1.82,1.82,0,0,1-1.82-1.93v0c0-.23.05-.46.08-.7a4.87,4.87,0,0,1,.69-2.11c1.43-1.9,4.2-2.78,9.13-4.75a39.67,39.67,0,0,0,6.88-3.67,1,1,0,0,1,1.2.12c6,5.81,9.63,4.55,10.72,2.15.83-1.84,2-1.46,2.35-.93,1,1.68,1.58,6.6,1.81,9.07,0,.26.05.51.06.7,0,.46.06.74.06.74A1.05,1.05,0,0,1,468.21,349.48Z" transform="translate(-23.29)" />
  <path class="cls-4" d="M447.88,343.21a3.23,3.23,0,0,1-1.83-3.26l.52.08a2.65,2.65,0,0,0,1.54,2.71Z" transform="translate(-23.29)" />
  <path class="cls-4" d="M445.24,344.11a3.25,3.25,0,0,1-1.76-3.11l.52.06a2.72,2.72,0,0,0,1.49,2.59Z" transform="translate(-23.29)" />
  <path class="cls-4" d="M462.24,342.73a9.53,9.53,0,0,1-3.87-.92l.24-.46s4.62,2.3,7-.63l.41.32A4.57,4.57,0,0,1,462.24,342.73Z" transform="translate(-23.29)" />
  <rect class="cls-4" x="447.95" y="347.17" width="17.56" height="0.52" transform="translate(-24.57 1.69) rotate(-0.21)" />
  <rect class="cls-4" x="441.54" y="347.22" width="4.15" height="0.52" transform="translate(-24.59 1.66) rotate(-0.21)" />
  <path class="cls-3" d="M465.08,204.84a72.06,72.06,0,0,0,8.94,3c4.38-4.89,14-13.72,14.89-34.25Z" transform="translate(-23.29)" />
  <path class="cls-5" d="M455.41,210c28.58-6.48,33.5-36.38,33.5-36.38s-4.72-13.16-10.5-13.64l-.16,0a10.24,10.24,0,0,0-11.05,9.75c-.5,10.38-2.55,23.28-15.46,30.93Z" transform="translate(-23.29)" />
  <path class="cls-6" d="M451.92,200.89l-.36-.61c11.91-7.05,13.55-18.5,15-28.6.11-.7.2-1.39.31-2.07.52-3.52,2.31-12.12,7.66-16l.41.57c-5.13,3.7-6.87,12.07-7.38,15.5q-.15,1-.3,2.07C465.86,181.53,464.12,193.66,451.92,200.89Z" transform="translate(-23.29)" />
  <path class="cls-6" d="M480.53,193.61l-.53-.46c4.93-5.64,8.36-17.93,8.39-18.06l.68.19C488.93,175.79,485.57,187.86,480.53,193.61Z" transform="translate(-23.29)" />
  <path class="cls-4" d="M472.48,216.76c-.24-.13-5.94-3-6.68-8.2l.7-.1c.69,4.8,6.24,7.64,6.3,7.66Z" transform="translate(-23.29)" />
  <path class="cls-21" d="M444.53,209.84c.07.24-5,1.29-4.71,2.1.4,1.07,4.46-.86,4.69-.38.11.23-1.45.65-2.34,1-.5.2-.41.64-.05.67,3.76.36,9.08-3.51,9.71-3.64,1.09-.22,2.14-.47,3.16-.73L452.28,202c-.51.36-1,.69-1.58,1a11.85,11.85,0,0,1-3.39,1.58c-.74,0-4.73-.38-4.74.48s2.8.59,2.67,1.29c-.07.44-5.57,1.12-5.17,2.12.26.66,3.54-.2,3.54.18s-4.24.59-3.9,1.59S444.4,209.36,444.53,209.84Z" transform="translate(-23.29)" />
  <path class="cls-22" d="M362.31,263.48l-8.59,34.16a.34.34,0,0,0,0,.26.36.36,0,0,0,.21.16h0l10.25,2.58a.4.4,0,0,0,.28-.05.37.37,0,0,0,.15-.25l5.15-35a.36.36,0,0,0-.26-.39l-6.81-1.71A.36.36,0,0,0,362.31,263.48Z" transform="translate(-23.29)" />
  <path class="cls-19" d="M361.31,263.09l-1-.26,1.49-5.92c.87-3.46-1.51-7.06-5.31-8l-1.57-.39a7.41,7.41,0,0,0-5.36.64,6.18,6.18,0,0,0-3.12,3.92L344.93,259l-1-.26,1.49-5.92a7.21,7.21,0,0,1,3.64-4.59,8.47,8.47,0,0,1,6.12-.73l1.56.39c4.37,1.09,7.1,5.27,6.09,9.3Z" transform="translate(-23.29)" />
  <path class="cls-17" d="M319.64,289a.33.33,0,0,0,0,.29.32.32,0,0,0,.22.17l34.1,8.56a.35.35,0,0,0,.42-.22l12-33.3a.36.36,0,0,0,0-.29.4.4,0,0,0-.23-.17l-34.09-8.56a.35.35,0,0,0-.42.22Z" transform="translate(-23.29)" />
  <path class="cls-19" d="M356.8,264.91l-1-.26L358,256c.87-3.46-1.51-7.06-5.32-8l-1.56-.39a7.38,7.38,0,0,0-5.35.64,6.14,6.14,0,0,0-3.13,3.92l-2.18,8.69-1-.25,2.19-8.7a7.19,7.19,0,0,1,3.64-4.59,8.52,8.52,0,0,1,6.12-.74l1.56.4c4.37,1.09,7.1,5.27,6.09,9.3Z" transform="translate(-23.29)" />
  <path class="cls-23" d="M402.4,219.05l-18,57.19a.36.36,0,0,0,.23.44L398.42,281a.34.34,0,0,0,.29,0,.33.33,0,0,0,.16-.23l13.38-58.61a.33.33,0,0,0-.23-.41l-9.18-2.91a.33.33,0,0,0-.26,0A.37.37,0,0,0,402.4,219.05Z" transform="translate(-23.29)" />
  <path class="cls-10" d="M399.68,218.22l-.87-.28,2.44-7.78A8.94,8.94,0,0,0,395.43,199l-1.89-.59a8.9,8.9,0,0,0-11.17,5.82L379.92,212l-.87-.28,2.44-7.77a9.86,9.86,0,0,1,12.33-6.43l1.89.59a9.86,9.86,0,0,1,6.42,12.33Z" transform="translate(-23.29)" />
  <path class="cls-3" d="M338.54,261.77a.37.37,0,0,0,0,.29.33.33,0,0,0,.2.18h0l45.87,14.43a.36.36,0,0,0,.43-.2l22.6-55.72a.39.39,0,0,0,0-.28.48.48,0,0,0-.21-.19l-45.88-14.43a.35.35,0,0,0-.43.2Z" transform="translate(-23.29)" />
  <path class="cls-10" d="M393.93,220.41l-.88-.27,3.6-11.43a8.92,8.92,0,0,0-5.83-11.17l-1.88-.6a8.93,8.93,0,0,0-11.18,5.83l-3.59,11.43-.88-.28,3.6-11.43a9.83,9.83,0,0,1,12.32-6.42l1.89.59A9.86,9.86,0,0,1,397.52,209Z" transform="translate(-23.29)" />
  <path class="cls-12" d="M345.93,225l7.52,34.41a.37.37,0,0,0,.16.22.34.34,0,0,0,.26.05h0l10.31-2.26a.33.33,0,0,0,.23-.17.36.36,0,0,0,0-.29l-11-33.64a.35.35,0,0,0-.41-.24l-6.85,1.5A.36.36,0,0,0,345.93,225Z" transform="translate(-23.29)" />
  <path class="cls-10" d="M327.4,228.88l-1.31-6a7.11,7.11,0,0,1,1.21-5.68,8.37,8.37,0,0,1,5.1-3.35l1.58-.35a8.43,8.43,0,0,1,6,.91,7.15,7.15,0,0,1,3.47,4.66l1.3,6-.89.19-1.31-6a6.27,6.27,0,0,0-3-4.06,7.48,7.48,0,0,0-5.38-.8l-1.58.34a7.46,7.46,0,0,0-4.55,3,6.17,6.17,0,0,0-1.06,4.95l1.3,6Z" transform="translate(-23.29)" />
  <path class="cls-11" d="M319.11,266.85a.39.39,0,0,0,.14.25.41.41,0,0,0,.28.06l34.35-7.53a.35.35,0,0,0,.27-.38l-4.09-35.16a.3.3,0,0,0-.15-.25.37.37,0,0,0-.28-.06L315.3,231.3a.36.36,0,0,0-.28.39Z" transform="translate(-23.29)" />
  <path class="cls-10" d="M324.16,232.52l-1.92-8.76a7.14,7.14,0,0,1,1.21-5.68,8.4,8.4,0,0,1,5.1-3.35l1.58-.35a8.43,8.43,0,0,1,6,.91,7.17,7.17,0,0,1,3.47,4.66l1.92,8.76-.9.19-1.92-8.76a6.2,6.2,0,0,0-3-4,7.48,7.48,0,0,0-5.38-.81l-1.58.34a7.5,7.5,0,0,0-4.55,3,6.21,6.21,0,0,0-1.06,4.95l1.92,8.76Z" transform="translate(-23.29)" />
  <path class="cls-10" d="M393,329.42H308v-1.06h85a4.11,4.11,0,0,0,3.83-2.59,4.39,4.39,0,0,0-.88-4.83l-14.56-19.47.85-.64,14.52,19.42a5.4,5.4,0,0,1,1.05,5.93A5.18,5.18,0,0,1,393,329.42Z" transform="translate(-23.29)" />
  <path class="cls-19" d="M317.42,342a7.6,7.6,0,1,0,7.6-7.6A7.6,7.6,0,0,0,317.42,342Z" transform="translate(-23.29)" />
  <path class="cls-17" d="M318,329.63,322.56,343a2.68,2.68,0,0,0,2.53,1.81,2.82,2.82,0,0,0,.86-.14,2.68,2.68,0,0,0,1.67-3.4l-4-11.65Z" transform="translate(-23.29)" />
  <path class="cls-19" d="M323.2,342.14a1.82,1.82,0,1,0,1.82-1.81A1.82,1.82,0,0,0,323.2,342.14Z" transform="translate(-23.29)" />
  <circle class="cls-19" cx="357.47" cy="341.99" r="7.6" />
  <path class="cls-17" d="M373.73,329.63,378.31,343a2.66,2.66,0,0,0,2.53,1.81,2.87,2.87,0,0,0,.86-.14,2.68,2.68,0,0,0,1.67-3.4l-4-11.65Z" transform="translate(-23.29)" />
  <path class="cls-19" d="M379,342.14a1.82,1.82,0,1,0,1.82-1.81A1.81,1.81,0,0,0,379,342.14Z" transform="translate(-23.29)" />
  <polygon class="cls-10" points="390 244.6 389.01 244.21 402.92 208.74 417.08 207.45 417.18 208.5 403.67 209.74 390 244.6" />
  <path class="cls-10" d="M384.75,301.63h-.33L310.29,299c-5.21-.19-9.49-4.64-10-10.36l-3.58-44.14.52,0,119.93-10.3-22.92,60.52A10.44,10.44,0,0,1,384.75,301.63ZM297.9,245.42l3.49,43.09c.42,5.18,4.26,9.22,8.94,9.38l74.12,2.67a9.29,9.29,0,0,0,8.85-6.3l22.32-58.95Z" transform="translate(-23.29)" />
  <rect class="cls-10" x="300.87" y="280.39" width="87.67" height="1.06" transform="translate(-32.25 11.36) rotate(-1.86)" />
  <rect class="cls-10" x="299.83" y="259.8" width="101.4" height="1.06" transform="translate(-38.22 21.4) rotate(-3.42)" />
  <rect class="cls-10" x="349.37" y="267.85" width="66.46" height="1.06" transform="translate(-16.35 546.39) rotate(-71.55)" />
  <rect class="cls-10" x="318.93" y="243.24" width="1.06" height="55.3" transform="matrix(1, -0.07, 0.07, 1, -41.53, 23.1)" />
  <rect class="cls-10" x="330.46" y="268.75" width="61.77" height="1.06" transform="translate(2.16 569.71) rotate(-78.5)" />
  <rect class="cls-10" x="310.98" y="269.64" width="58.84" height="1.06" transform="translate(27.01 593.75) rotate(-86.56)" />
  <path class="cls-19" d="M435.6,212.7l6.93-.67a3.93,3.93,0,0,0,3.53-4.27h0a3.94,3.94,0,0,0-4.28-3.53l-6.93.67a3.93,3.93,0,0,0-3.53,4.27h0A3.94,3.94,0,0,0,435.6,212.7Z" transform="translate(-23.29)" />
  <path class="cls-6" d="M156.78,35l-.64-.39c7.64-12.76,20-21.41,38.77-27.24l.22.72C176.52,13.85,164.33,22.4,156.78,35Z" transform="translate(-23.29)" />
  <path class="cls-6" d="M144.83,41l-.71-.26C154,13.64,179.33,4.94,202.82,0l.15.74C179.69,5.63,154.57,14.25,144.83,41Z" transform="translate(-23.29)" />
  <path class="cls-6" d="M574.42,167.12c-8.46-17.56-18.72-28.34-32.28-34l.28-.7c13.75,5.68,24.14,16.58,32.68,34.32Z" transform="translate(-23.29)" />
  <path class="cls-6" d="M584.23,175.76c-8.28-22.3-20.52-45.87-48.46-51.54l.15-.74c28.3,5.75,40.66,29.52,49,52Z" transform="translate(-23.29)" />
  <path class="cls-12" d="M159.05,353.56c0,1.95,14.34,3.54,32,3.54s32-1.59,32-3.54a.44.44,0,0,0,0-.1v-9.57h-64v9.54A.35.35,0,0,0,159.05,353.56Z" transform="translate(-23.29)" />
  <ellipse class="cls-11" cx="167.77" cy="343.98" rx="32.01" ry="3.54" />
  <path class="cls-12" d="M151.49,342c0,2,14.33,3.54,32,3.54s32-1.59,32-3.54a.41.41,0,0,0,0-.11v-9.57h-64v9.55A.59.59,0,0,0,151.49,342Z" transform="translate(-23.29)" />
  <ellipse class="cls-11" cx="160.21" cy="332.43" rx="32.01" ry="3.54" />
  <path class="cls-12" d="M159.05,330.47c0,2,14.34,3.54,32,3.54s32-1.58,32-3.54a.44.44,0,0,0,0-.1V320.8h-64v9.55A.27.27,0,0,0,159.05,330.47Z" transform="translate(-23.29)" />
  <ellipse class="cls-11" cx="167.77" cy="320.89" rx="32.01" ry="3.54" />
  <path class="cls-6" d="M191.06,357.48c13,0,32.39-1,32.39-3.92h-.75c0,1.1-10.87,3.16-31.64,3.16h-2.24v.76Z" transform="translate(-23.29)" />
  <path class="cls-6" d="M178.37,357.19l0-.76c-3.24-.15-6.22-.36-8.84-.63l-.07.76C172.13,356.82,175.12,357,178.37,357.19Z" transform="translate(-23.29)" />
  <path class="cls-6" d="M203.7,345.08c12-1.09,12-2.61,12-3.11H215c0,.37-2,1.51-11.34,2.36Z" transform="translate(-23.29)" />
  <path class="cls-6" d="M183.34,345.89c3.6,0,7.13-.06,10.5-.19l0-.76c-6,.23-12.68.26-18.88.07l0,.76C177.65,345.85,180.49,345.89,183.34,345.89Z" transform="translate(-23.29)" />
  <path class="cls-6" d="M167,345.39l0-.75c-3.41-.23-6.39-.52-8.85-.86l-.11.74C160.53,344.87,163.53,345.17,167,345.39Z" transform="translate(-23.29)" />
  <path class="cls-6" d="M212.59,323.9c10.67-1.09,10.67-2.46,10.67-3h-.76s-.27,1.24-10,2.23Z" transform="translate(-23.29)" />
  <path class="cls-6" d="M190.87,324.84c3.68,0,7.28-.07,10.7-.2l0-.76c-3.41.14-7,.2-10.67.2-6.57,0-12.88-.21-18.25-.63l-.05.76C178,324.62,184.28,324.84,190.87,324.84Z" transform="translate(-23.29)" />
  <path class="cls-12" d="M147.71,318.93c0,1.95,14.33,3.54,32,3.54s32-1.59,32-3.54c0,0,0-.07,0-.11v-9.57h-64v9.55A.59.59,0,0,0,147.71,318.93Z" transform="translate(-23.29)" />
  <path class="cls-11" d="M147.71,309.34c0,2,14.33,3.54,32,3.54s32-1.58,32-3.54-14.33-3.54-32-3.54S147.71,307.39,147.71,309.34Z" transform="translate(-23.29)" />
  <path class="cls-12" d="M153.65,309.34c0,1.32,11.67,2.38,26.07,2.38s26.07-1.06,26.07-2.38S194.12,307,179.72,307,153.65,308,153.65,309.34Z" transform="translate(-23.29)" />
  <path class="cls-11" d="M106.17,296.81A32.34,32.34,0,1,0,137.62,330,32.33,32.33,0,0,0,106.17,296.81Zm25.14,33a26,26,0,1,1-26-26.73H106a26.05,26.05,0,0,1,25.32,26C131.32,329.37,131.32,329.6,131.31,329.84Z" transform="translate(-23.29)" />
  <path class="cls-12" d="M131.32,329.13v.71a26,26,0,1,1-26-26.73H106A26.05,26.05,0,0,1,131.32,329.13Z" transform="translate(-23.29)" />
  <path class="cls-11" d="M103.65,349v-4.9A14.17,14.17,0,0,1,96.23,342l1.16-3.25a13,13,0,0,0,7,2.08c3.44,0,5.77-2,5.77-4.75s-1.89-4.31-5.48-5.77c-5-1.94-8-4.17-8-8.39,0-4,2.86-7.08,7.32-7.8v-4.9h3v4.7a13.05,13.05,0,0,1,6.31,1.7l-1.21,3.2a11.75,11.75,0,0,0-6.11-1.65c-3.74,0-5.14,2.23-5.14,4.17,0,2.52,1.79,3.78,6,5.53,5,2,7.52,4.56,7.52,8.87,0,3.83-2.67,7.42-7.67,8.25v5Z" transform="translate(-23.29)" />
  <path class="cls-6" d="M130.25,322.62c-.05-.21-.11-.42-.17-.63a25.76,25.76,0,0,0-13.81-16.16l.29-.64a26.41,26.41,0,0,1,14.18,16.56c.08.26.14.47.2.69Z" transform="translate(-23.29)" />
  <path class="cls-6" d="M116.27,305.83a25.71,25.71,0,0,0-17.33-1.59l-.17-.69a26.38,26.38,0,0,1,17.79,1.64Z" transform="translate(-23.29)" />
  <path class="cls-6" d="M128.15,342.44l-.61-.36a25.59,25.59,0,0,0,3.31-9.46l.69.1A26.18,26.18,0,0,1,128.15,342.44Z" transform="translate(-23.29)" />
  <path class="cls-6" d="M126.34,305.09A32,32,0,0,0,118,299.8l.3-.69a32.76,32.76,0,0,1,8.54,5.41Z" transform="translate(-23.29)" />
  <path class="cls-6" d="M123.55,356.29l-.43-.63A32,32,0,0,0,132.27,312l.64-.4a32.72,32.72,0,0,1-9.36,44.7Z" transform="translate(-23.29)" />
  <path class="cls-6" d="M202.2,90H166.9a.63.63,0,0,1-.63-.63.63.63,0,0,1,.63-.63h35.3a.63.63,0,0,1,.63.63A.63.63,0,0,1,202.2,90Z" transform="translate(-23.29)" />
  <path class="cls-13" d="M86,310.82a12.23,12.23,0,0,1,5.56,5.83h0a12.3,12.3,0,0,1,5.56-5.84h0A12.19,12.19,0,0,1,91.52,305h0A12.16,12.16,0,0,1,86,310.82Z" transform="translate(-23.29)" />
  <path class="cls-13" d="M117.86,345.44a7.15,7.15,0,0,1,3.23,3.38h0a7.08,7.08,0,0,1,3.23-3.39h0a7,7,0,0,1-3.23-3.39h0A7.15,7.15,0,0,1,117.86,345.44Z" transform="translate(-23.29)" />
  <path class="cls-13" d="M83.75,339.43A7.08,7.08,0,0,1,87,342.82h0a7.13,7.13,0,0,1,3.23-3.39h0A7.13,7.13,0,0,1,87,336h0A7.08,7.08,0,0,1,83.75,339.43Z" transform="translate(-23.29)" />
</svg>