<?xml version="1.0" encoding="utf-8"?>
<!-- Generator: Adobe Illustrator 24.1.2, SVG Export Plug-In . SVG Version: 6.00 Build 0)  -->
<svg version="1.1" id="Layer_1" xmlns="http://www.w3.org/2000/svg" xmlns:xlink="http://www.w3.org/1999/xlink" x="0px" y="0px"
	 viewBox="0 0 1024 1024" style="enable-background:new 0 0 1024 1024;" xml:space="preserve">
<style type="text/css">
	.st0{fill:#F5F5F5;}
	.st1{fill:#E1E1E1;}
	.st2{fill:none;stroke:#FFFFFF;stroke-miterlimit:10;}
	.st3{fill:#1A2E35;}
	.st4{fill:#008075;}
	.st5{fill:#375A64;}
	.st6{fill:#C78976;}
	.st7{fill:#B66955;}
	.st8{opacity:0.3;}
	.st9{fill:#FAFAFA;}
	.st10{opacity:0.5;}
	.st11{fill:#FFFFFF;}
</style>
<g>
	<g>
		
			<rect x="140.32" y="348.41" transform="matrix(0.8312 -0.556 0.556 0.8312 -242.2115 226.1916)" class="st0" width="222.18" height="327.15"/>
	</g>
	<g>
		<g>
			<polygon class="st1" points="339.28,573.3 337.18,586.27 245.38,573.05 247.47,560.07 			"/>
		</g>
		<g>
			<polygon class="st1" points="293.04,527.03 306.22,528.93 291.61,619.32 278.44,617.42 			"/>
		</g>
	</g>
	<g>
		<g>
			<path class="st2" d="M266.94,417.49"/>
		</g>
	</g>
	<g>
		<g>
			<path class="st1" d="M208.48,412.14c0.13,0.2-18.38,12.81-41.33,28.16c-22.96,15.36-41.68,27.65-41.81,27.45
				c-0.13-0.2,18.37-12.8,41.34-28.16C189.63,424.24,208.35,411.95,208.48,412.14z"/>
		</g>
	</g>
	<g>
		<g>
			<path class="st1" d="M276.4,395.09c0.13,0.2-30.64,21.01-68.73,46.49c-38.1,25.48-69.08,45.98-69.21,45.78
				c-0.13-0.2,30.64-21.01,68.74-46.49C245.28,415.39,276.27,394.9,276.4,395.09z"/>
		</g>
	</g>
	<g>
		<g>
			<path class="st1" d="M290.01,415.45c0.13,0.2-30.64,21.01-68.73,46.49c-38.1,25.48-69.08,45.98-69.21,45.78
				c-0.13-0.2,30.64-21.01,68.74-46.49C258.89,435.75,289.88,415.25,290.01,415.45z"/>
		</g>
	</g>
	<g>
		<g>
			<path class="st1" d="M303.63,435.8c0.13,0.2-30.64,21.01-68.73,46.49c-38.1,25.48-69.08,45.98-69.21,45.78
				c-0.13-0.2,30.64-21.01,68.74-46.49C272.51,456.1,303.5,435.61,303.63,435.8z"/>
		</g>
	</g>
	<g>
		<g>
			<path class="st1" d="M317.24,456.16c0.13,0.2-30.64,21.01-68.73,46.49c-38.1,25.48-69.08,45.98-69.21,45.78
				c-0.13-0.2,30.64-21.01,68.74-46.49C286.12,476.46,317.11,455.96,317.24,456.16z"/>
		</g>
	</g>
</g>
<g>
	<g>
		
			<rect x="775.87" y="525.19" transform="matrix(0.8312 -0.556 0.556 0.8312 -221.6546 595.0557)" class="st0" width="186.59" height="274.75"/>
	</g>
	<g>
		<g>
			<polygon class="st1" points="942.96,714.06 941.2,724.95 864.1,713.84 865.86,702.95 			"/>
		</g>
		<g>
			<polygon class="st1" points="904.13,675.2 915.2,676.79 902.93,752.7 891.87,751.11 			"/>
		</g>
	</g>
	<g>
		<g>
			<path class="st2" d="M882.21,583.21"/>
		</g>
	</g>
	<g>
		<g>
			<path class="st1" d="M833.12,578.71c0.13,0.2-15.39,10.81-34.67,23.71c-19.29,12.9-35.02,23.19-35.15,23
				c-0.13-0.2,15.39-10.81,34.68-23.71C817.24,588.81,832.98,578.52,833.12,578.71z"/>
		</g>
	</g>
	<g>
		<g>
			<path class="st1" d="M890.15,564.4c0.13,0.2-25.7,17.7-57.68,39.1c-32,21.4-58.04,38.59-58.17,38.39
				c-0.13-0.2,25.69-17.7,57.69-39.1C863.98,581.39,890.02,564.2,890.15,564.4z"/>
		</g>
	</g>
	<g>
		<g>
			<path class="st1" d="M901.59,581.49c0.13,0.2-25.7,17.7-57.68,39.1c-32,21.4-58.04,38.59-58.17,38.39
				c-0.13-0.2,25.69-17.7,57.69-39.1C875.41,598.48,901.45,581.29,901.59,581.49z"/>
		</g>
	</g>
	<g>
		<g>
			<path class="st1" d="M913.02,598.58c0.13,0.2-25.7,17.7-57.68,39.1c-32,21.4-58.04,38.59-58.17,38.39
				c-0.13-0.2,25.69-17.7,57.69-39.1C886.84,615.57,912.89,598.39,913.02,598.58z"/>
		</g>
	</g>
	<g>
		<g>
			<path class="st1" d="M924.45,615.68c0.13,0.2-25.7,17.7-57.68,39.1c-32,21.4-58.04,38.59-58.17,38.39
				c-0.13-0.2,25.69-17.7,57.69-39.1C898.28,632.67,924.32,615.48,924.45,615.68z"/>
		</g>
	</g>
</g>
<g>
	<g>
		
			<rect x="377.76" y="262.28" transform="matrix(0.8818 0.4716 -0.4716 0.8818 246.3138 -175.7091)" class="st0" width="191.91" height="282.58"/>
	</g>
	<g>
		<g>
			<polygon class="st1" points="462.73,495.46 451.99,499.14 424.74,423.8 435.47,420.12 			"/>
		</g>
		<g>
			<polygon class="st1" points="479.19,441.41 483.1,452.23 408.28,477.85 404.37,467.04 			"/>
		</g>
	</g>
	<g>
		<g>
			<path class="st2" d="M552.04,376.98"/>
		</g>
	</g>
	<g>
		<g>
			<path class="st1" d="M532.35,330.26c-0.13,0.25-17.3-8.67-38.33-19.92c-21.04-11.25-37.99-20.58-37.86-20.82
				c0.13-0.25,17.29,8.67,38.34,19.93C515.53,320.69,532.48,330.01,532.35,330.26z"/>
		</g>
	</g>
	<g>
		<g>
			<path class="st1" d="M572.96,375.08c-0.13,0.25-28.54-14.69-63.44-33.35c-34.91-18.67-63.1-34-62.97-34.25
				c0.13-0.25,28.53,14.68,63.45,33.35C544.9,359.5,573.09,374.83,572.96,375.08z"/>
		</g>
	</g>
	<g>
		<g>
			<path class="st1" d="M562.99,393.73c-0.13,0.25-28.54-14.69-63.44-33.35c-34.91-18.67-63.1-34-62.97-34.25
				c0.13-0.25,28.53,14.68,63.45,33.36C534.93,378.15,563.12,393.48,562.99,393.73z"/>
		</g>
	</g>
	<g>
		<g>
			<path class="st1" d="M553.01,412.38c-0.13,0.25-28.54-14.69-63.44-33.35c-34.91-18.67-63.1-34-62.97-34.25
				c0.13-0.25,28.53,14.68,63.45,33.35C524.95,396.8,553.14,412.13,553.01,412.38z"/>
		</g>
	</g>
	<g>
		<g>
			<path class="st1" d="M543.04,431.03c-0.13,0.25-28.54-14.69-63.44-33.35c-34.91-18.67-63.1-34-62.97-34.25
				c0.13-0.25,28.53,14.68,63.45,33.35C514.98,415.45,543.17,430.79,543.04,431.03z"/>
		</g>
	</g>
</g>
<g>
	<g>
		<path class="st3" d="M983.23,836.92c0,0.24-212.73,0.43-475.09,0.43c-262.45,0-475.14-0.19-475.14-0.43
			c0-0.24,212.69-0.43,475.14-0.43C770.5,836.49,983.23,836.69,983.23,836.92z"/>
	</g>
</g>
<g>
	<g>
		<path class="st4" d="M85.59,733.84c5.56,0.2,10.79,3.22,14.46,7.4c3.67,4.19,5.92,9.45,7.36,14.83
			c2.78,10.41,1.07,22.69-1.9,33.05c-11.27-4.03-18.22-16.04-21.36-22.36C79.19,756.78,76.28,735.72,85.59,733.84"/>
	</g>
	<g>
		<path class="st4" d="M121.73,801.74c-3.56-5.1-3.64-12.2-0.83-17.75c2.81-5.55,8.21-9.55,14.16-11.38c2.75-0.84,5.94-1.2,8.33,0.4
			c2.24,1.49,3.2,4.42,2.91,7.1c-0.29,2.67-1.64,5.12-3.24,7.28C137.58,794.81,130.92,800.98,121.73,801.74"/>
	</g>
	<g>
		<g>
			<path class="st3" d="M122.97,836.52c-0.05,0.01-0.22-0.76-0.5-2.16c-0.3-1.54-0.69-3.54-1.16-5.93
				c-0.89-4.99-2.3-12.08-1.23-19.92c1.03-7.81,4.13-14.48,7.39-18.46c1.6-2.02,3.14-3.44,4.27-4.32c0.55-0.46,1.03-0.75,1.34-0.96
				c0.32-0.21,0.49-0.3,0.5-0.28c0.12,0.14-2.63,1.84-5.68,5.9c-3.09,4-6.04,10.56-7.05,18.23c-1.05,7.68,0.25,14.71,1,19.72
				c0.4,2.52,0.73,4.56,0.91,5.98C122.95,835.72,123.02,836.51,122.97,836.52z"/>
		</g>
	</g>
	<g>
		<g>
			<path class="st3" d="M89.22,749.69c0.02-0.01,0.18,0.28,0.45,0.85c0.3,0.65,0.68,1.48,1.16,2.51c1,2.18,2.4,5.36,4.09,9.3
				c3.39,7.88,7.93,18.84,12.67,31.05c4.73,12.21,8.77,23.37,11.58,31.48c1.4,4.05,2.51,7.35,3.25,9.63
				c0.34,1.08,0.62,1.95,0.83,2.63c0.18,0.61,0.27,0.93,0.24,0.94s-0.16-0.3-0.39-0.88c-0.25-0.67-0.57-1.53-0.97-2.59
				c-0.86-2.35-2.04-5.58-3.48-9.54c-2.94-8.06-7.05-19.17-11.79-31.38c-4.73-12.2-9.19-23.18-12.45-31.12
				c-1.6-3.9-2.91-7.09-3.86-9.4c-0.42-1.05-0.76-1.9-1.03-2.57C89.31,750.01,89.2,749.7,89.22,749.69z"/>
		</g>
	</g>
	<g>
		<path class="st4" d="M109.59,813.51c-6.64-11.31-19.05-19.01-32.13-19.96c-3.33-0.24-7.34,0.32-8.82,3.31c-1.49,3,0.5,6.54,2.77,9
			c9.44,10.23,25.41,13.79,38.31,8.55"/>
	</g>
	<g>
		<g>
			<path class="st3" d="M82.53,802.46c0-0.05,0.74-0.02,2.09,0.08c0.67,0.05,1.49,0.11,2.43,0.28c0.94,0.17,2.03,0.28,3.19,0.6
				c1.17,0.29,2.46,0.57,3.8,1.05c1.36,0.4,2.76,0.99,4.23,1.61c2.9,1.32,5.98,3.04,8.92,5.29c2.91,2.27,5.37,4.81,7.37,7.29
				c0.96,1.28,1.88,2.48,2.6,3.71c0.79,1.18,1.38,2.37,1.93,3.44c0.59,1.05,0.94,2.09,1.33,2.97c0.39,0.87,0.63,1.66,0.83,2.31
				c0.4,1.28,0.59,2,0.54,2.02c-0.17,0.06-0.97-2.82-3.19-7.03c-0.58-1.04-1.18-2.19-1.99-3.34c-0.73-1.2-1.65-2.37-2.61-3.61
				c-2-2.42-4.43-4.89-7.29-7.12c-2.88-2.2-5.89-3.92-8.74-5.25c-1.44-0.63-2.81-1.23-4.14-1.65c-1.31-0.5-2.57-0.81-3.72-1.13
				C85.49,802.79,82.52,802.63,82.53,802.46z"/>
		</g>
	</g>
</g>
<g>
	<g>
		<g>
			<path class="st3" d="M829.66,286.61c-4.84,1.11-7.2,6.68-7.65,11.63s0.17,10.17-1.9,14.68c-2.34,5.08-7.92,8.82-8.11,14.41
				c-0.11,3.41,1.91,6.61,1.81,10.02c-0.16,5.59-5.86,9.82-6.16,15.41c-0.22,4.02,2.46,7.89,1.82,11.86c-0.5,3.1-2.91,5.54-3.93,8.5
				c-2.03,5.91,2.03,12.42,7.32,15.75c5.9,3.71,13.45,4.67,20.08,2.55c6.64-2.12,12.23-7.28,14.89-13.72
				c2.93-7.11,2.29-15.11,1.65-22.77c-1.98-23.87-3.46-47.79-4.42-71.73"/>
		</g>
		<g>
			<g>
				<path class="st5" d="M815.61,370.86c-0.1-0.09,1.32-0.52,2.21-2.63c0.43-1.03,0.65-2.42,0.56-4.02c-0.06-1.61-0.6-3.36-1.2-5.33
					c-0.55-1.96-1.27-4.22-0.86-6.75c0.41-2.56,2.25-4.67,3.92-6.74c0.84-1.05,1.69-2.14,2.22-3.38c0.56-1.23,0.68-2.63,0.26-3.95
					c-0.85-2.69-3.48-4.67-4.69-7.77c-0.6-1.56-0.61-3.26-0.26-4.8c0.33-1.55,0.95-2.96,1.59-4.31c1.29-2.68,2.71-5.14,3.27-7.74
					c1.16-5.22,0.62-10.2,1.4-14.3c0.71-4.1,2.45-7.18,4.16-8.77c0.84-0.82,1.65-1.26,2.17-1.55c0.56-0.24,0.86-0.35,0.87-0.33
					c0.06,0.09-1.22,0.48-2.81,2.11c-1.59,1.6-3.18,4.62-3.8,8.64c-0.33,2-0.38,4.24-0.46,6.65c-0.08,2.41-0.16,5.02-0.77,7.73
					c-0.57,2.74-2.03,5.29-3.28,7.92c-1.24,2.59-2.37,5.62-1.28,8.45c1.05,2.8,3.7,4.79,4.69,7.82c0.49,1.51,0.33,3.17-0.31,4.53
					c-0.6,1.37-1.5,2.5-2.36,3.55c-1.72,2.08-3.44,4.06-3.84,6.36c-0.41,2.29,0.22,4.5,0.74,6.46c0.55,1.96,1.08,3.8,1.1,5.47
					c0.04,1.66-0.23,3.1-0.74,4.17c-0.5,1.07-1.18,1.74-1.69,2.08C815.93,370.79,815.61,370.86,815.61,370.86z"/>
			</g>
		</g>
	</g>
	<path class="st6" d="M802.65,409.87l-14.86,42.83l-61.96,3.32l-10.33,22.99l64.68,6.54c12.9,5.33,27.64-1.2,32.34-14.34
		l17.26-48.18L802.65,409.87z"/>
	<g>
		<g>
			<g>
				<path class="st6" d="M930.81,813.66c0,0-45.4-144.21-46.37-148.89c-0.87-4.23,16.48-108.01,18.66-134.87l-61.35,2.29
					c0,0,0,0.16-0.01,0.45l-26.08,1.45l23.36,294.93h28.23l-2.8-97.85c17.41,46.74,42.36,94.37,42.36,94.37L930.81,813.66z"/>
			</g>
			<g>
				<path class="st7" d="M865.61,766.24c0.03-0.9-0.34-32.78-0.34-32.78c-0.35,1.91-10.82-27.69-10.57-29.49
					C854.83,703.03,865.61,766.24,865.61,766.24z"/>
			</g>
		</g>
		<g>
			<path class="st7" d="M853.5,689.95c-0.06,0-0.13,0.63-0.18,1.79c-0.06,1.15-0.07,2.83,0.04,4.89c0.04,1.03,0.15,2.16,0.28,3.37
				c0.15,1.21,0.32,2.5,0.6,3.84c0.51,2.69,1.3,5.6,2.31,8.59c2.05,5.96,4.31,11.18,5.92,14.97c0.76,1.73,1.42,3.21,1.97,4.46
				c0.48,1.05,0.78,1.61,0.84,1.59c0.06-0.02-0.12-0.64-0.5-1.72c-0.38-1.09-0.95-2.65-1.69-4.57c-1.45-3.85-3.61-9.11-5.64-15.02
				c-1-2.96-1.8-5.82-2.35-8.46c-0.3-1.32-0.49-2.59-0.68-3.77c-0.17-1.19-0.31-2.3-0.39-3.32c-0.19-2.04-0.28-3.7-0.33-4.84
				C853.63,690.59,853.57,689.95,853.5,689.95z"/>
		</g>
	</g>
	<g>
		<g>
			<g>
				<g>
					<path class="st5" d="M838.5,830.47l-0.01-2.65l28.92-1.26l0.08,10.94l-1.78,0.12c-7.94,0.46-40.39,1.8-45.71,0.21
						C814.07,836.05,838.5,830.47,838.5,830.47z"/>
				</g>
			</g>
			<g>
				<g>
					<path class="st3" d="M867.88,836.84c0,0.01-0.17,0.03-0.49,0.06c-0.43,0.03-0.89,0.06-1.42,0.09
						c-1.42,0.07-3.17,0.15-5.23,0.24c-4.42,0.17-10.52,0.34-17.26,0.37c-6.75,0.03-12.85-0.08-17.27-0.21
						c-2.06-0.08-3.81-0.14-5.23-0.2c-0.53-0.03-0.99-0.05-1.42-0.08c-0.32-0.02-0.49-0.04-0.49-0.05c0-0.01,0.17-0.02,0.5-0.02
						c0.43,0,0.9,0.01,1.42,0.01c1.42,0.02,3.17,0.05,5.23,0.09c4.42,0.07,10.52,0.14,17.26,0.11c6.74-0.03,12.84-0.15,17.26-0.26
						c2.06-0.05,3.81-0.1,5.23-0.13c0.53-0.01,1-0.02,1.42-0.03C867.71,836.82,867.88,836.82,867.88,836.84z"/>
				</g>
			</g>
			<g>
				<g>
					<path class="st3" d="M829.13,837.77c-0.11,0.01-0.19-1.23-0.99-2.49c-0.77-1.27-1.85-1.91-1.79-2
						c0.02-0.09,1.26,0.45,2.09,1.81C829.28,836.44,829.21,837.79,829.13,837.77z"/>
				</g>
			</g>
			<g>
				<g>
					<path class="st3" d="M837.6,833.43c-0.08,0.05-0.49-0.44-0.91-1.1c-0.42-0.66-0.7-1.24-0.62-1.29c0.08-0.05,0.49,0.44,0.91,1.1
						C837.4,832.8,837.68,833.38,837.6,833.43z"/>
				</g>
			</g>
			<g>
				<g>
					<path class="st3" d="M839.93,832.19c-0.06,0.07-0.52-0.23-1.02-0.67c-0.5-0.44-0.85-0.86-0.78-0.93
						c0.06-0.07,0.52,0.23,1.02,0.67C839.64,831.7,839.99,832.12,839.93,832.19z"/>
				</g>
			</g>
			<g>
				<g>
					<path class="st3" d="M841.39,829.47c0,0.1-0.67,0.18-1.5,0.2c-0.83,0.01-1.5-0.06-1.51-0.15c0-0.1,0.67-0.18,1.5-0.2
						C840.71,829.31,841.39,829.37,841.39,829.47z"/>
				</g>
			</g>
			<g>
				<g>
					<path class="st3" d="M841.89,827.55c0.03,0.09-0.7,0.42-1.67,0.49c-0.98,0.08-1.75-0.13-1.73-0.22c0.02-0.1,0.78-0.05,1.7-0.12
						C841.11,827.63,841.86,827.46,841.89,827.55z"/>
				</g>
			</g>
			<g>
				<g>
					<path class="st3" d="M836.61,830.92c0,0.04-0.71,0.13-1.85-0.01c-0.57-0.07-1.24-0.2-1.97-0.43c-0.36-0.13-0.74-0.22-1.13-0.46
						c-0.18-0.12-0.39-0.29-0.46-0.57c-0.08-0.28,0.07-0.59,0.28-0.74c1.76-0.92,3.54,0.07,4.2,0.98c0.36,0.46,0.53,0.92,0.61,1.23
						c0.08,0.32,0.07,0.5,0.05,0.5c-0.07,0.02-0.13-0.73-0.85-1.57c-0.36-0.41-0.89-0.82-1.58-1.02c-0.65-0.19-1.58-0.24-2.2,0.16
						c-0.29,0.22-0.18,0.56,0.15,0.76c0.3,0.2,0.7,0.31,1.04,0.44c0.7,0.24,1.35,0.39,1.91,0.49
						C835.91,830.87,836.62,830.87,836.61,830.92z"/>
				</g>
			</g>
			<g>
				<g>
					<path class="st3" d="M836.14,831.02c-0.03,0.02-0.3-0.45-0.22-1.28c0.04-0.41,0.19-0.89,0.5-1.35
						c0.32-0.41,0.74-0.98,1.54-0.95c0.43,0.05,0.64,0.54,0.57,0.85c-0.03,0.32-0.18,0.6-0.31,0.83c-0.27,0.46-0.58,0.84-0.87,1.12
						c-0.58,0.57-1.03,0.79-1.06,0.75c-0.03-0.04,0.37-0.33,0.87-0.92c0.25-0.29,0.53-0.67,0.77-1.11c0.25-0.39,0.42-1.09-0.04-1.18
						c-0.46-0.04-0.93,0.42-1.21,0.79c-0.29,0.4-0.45,0.83-0.52,1.2C836.02,830.52,836.2,831,836.14,831.02z"/>
				</g>
			</g>
			<g>
				<g>
					<path class="st3" d="M867.27,828.97c-0.01,0.07-0.82-0.08-2.12,0.08c-1.29,0.15-3.08,0.68-4.63,1.93
						c-1.55,1.25-2.46,2.88-2.88,4.11c-0.43,1.24-0.47,2.06-0.54,2.06c-0.02,0-0.03-0.21,0-0.58c0.03-0.37,0.12-0.91,0.31-1.55
						c0.37-1.28,1.28-3,2.9-4.3c1.62-1.3,3.5-1.81,4.82-1.9c0.67-0.05,1.21-0.02,1.58,0.03
						C867.07,828.89,867.27,828.95,867.27,828.97z"/>
				</g>
			</g>
			<g>
				<g>
					<path class="st3" d="M853.42,834.54c0.01,0.09-1.86,0.39-4.2,0.4c-2.34,0.02-4.22-0.26-4.21-0.35c0.01-0.1,1.89,0.02,4.2,0.01
						C851.53,834.59,853.41,834.44,853.42,834.54z"/>
				</g>
			</g>
			<g>
				<g>
					<path class="st3" d="M859.06,834.48c0.07,0.07-0.15,0.4-0.34,0.83c-0.2,0.43-0.29,0.81-0.39,0.81c-0.09,0-0.15-0.45,0.07-0.95
						C858.62,834.67,858.99,834.41,859.06,834.48z"/>
				</g>
			</g>
			<g>
				<g>
					<path class="st3" d="M861.17,831.83c0.07,0.07-0.12,0.37-0.41,0.67c-0.3,0.3-0.59,0.49-0.66,0.43
						c-0.07-0.07,0.12-0.37,0.41-0.67C860.81,831.95,861.1,831.76,861.17,831.83z"/>
				</g>
			</g>
			<g>
				<g>
					<path class="st3" d="M864.21,830.61c-0.02,0.1-0.4,0.1-0.82,0.25c-0.43,0.14-0.73,0.38-0.8,0.31
						c-0.08-0.05,0.16-0.46,0.69-0.64C863.79,830.35,864.24,830.52,864.21,830.61z"/>
				</g>
			</g>
			<g>
				<g>
					<path class="st3" d="M866.37,830.03c0.04,0.09-0.13,0.24-0.37,0.33c-0.24,0.09-0.46,0.1-0.5,0.01
						c-0.04-0.09,0.13-0.24,0.37-0.33C866.11,829.95,866.34,829.94,866.37,830.03z"/>
				</g>
			</g>
		</g>
	</g>
	<g>
		<g>
			<g>
				<g>
					<path class="st5" d="M906.25,827.92l-1.1-2.41l25.86-12.99l4.55,9.94l-1.58,0.84c-7.05,3.68-36.11,18.19-41.61,18.91
						C886.25,843.02,906.25,827.92,906.25,827.92z"/>
				</g>
			</g>
			<g>
				<g>
					<path class="st3" d="M935.66,821.69c0.01,0.01-0.14,0.1-0.43,0.25c-0.38,0.2-0.79,0.42-1.26,0.66
						c-1.27,0.64-2.83,1.43-4.67,2.36c-3.96,1.97-9.46,4.62-15.6,7.41c-6.14,2.79-11.76,5.19-15.84,6.88
						c-1.91,0.77-3.53,1.43-4.85,1.96c-0.49,0.19-0.93,0.36-1.33,0.51c-0.3,0.11-0.47,0.17-0.47,0.16c0-0.01,0.15-0.09,0.45-0.22
						c0.39-0.17,0.82-0.36,1.3-0.57c1.31-0.56,2.91-1.25,4.81-2.06c4.06-1.74,9.66-4.18,15.79-6.97c6.14-2.79,11.65-5.4,15.64-7.31
						c1.86-0.89,3.44-1.65,4.72-2.26c0.48-0.22,0.9-0.42,1.29-0.61C935.5,821.74,935.66,821.68,935.66,821.69z"/>
				</g>
			</g>
			<g>
				<g>
					<path class="st3" d="M900.69,838.41c-0.09,0.06-0.68-1.05-1.92-1.87c-1.22-0.84-2.47-0.98-2.45-1.09
						c-0.02-0.09,1.33-0.1,2.65,0.8C900.29,837.14,900.78,838.4,900.69,838.41z"/>
				</g>
			</g>
			<g>
				<g>
					<path class="st3" d="M906.64,830.99c-0.05,0.08-0.63-0.2-1.28-0.63c-0.66-0.43-1.14-0.84-1.09-0.92
						c0.05-0.08,0.63,0.2,1.28,0.63C906.21,830.49,906.7,830.91,906.64,830.99z"/>
				</g>
			</g>
			<g>
				<g>
					<path class="st3" d="M908.26,828.9c-0.03,0.09-0.57,0-1.2-0.2c-0.64-0.2-1.13-0.44-1.1-0.53c0.03-0.09,0.57,0,1.2,0.2
						C907.79,828.57,908.28,828.81,908.26,828.9z"/>
				</g>
			</g>
			<g>
				<g>
					<path class="st3" d="M908.48,825.82c0.04,0.09-0.54,0.44-1.29,0.79c-0.75,0.35-1.4,0.57-1.44,0.48
						c-0.04-0.09,0.54-0.44,1.29-0.79C907.79,825.95,908.43,825.73,908.48,825.82z"/>
				</g>
			</g>
			<g>
				<g>
					<path class="st3" d="M908.15,823.87c0.06,0.07-0.47,0.67-1.32,1.14c-0.86,0.47-1.65,0.59-1.67,0.5
						c-0.03-0.1,0.69-0.36,1.5-0.81C907.47,824.26,908.08,823.79,908.15,823.87z"/>
				</g>
			</g>
			<g>
				<g>
					<path class="st3" d="M904.72,829.1c0.02,0.03-0.59,0.41-1.69,0.75c-0.55,0.17-1.22,0.33-1.97,0.42
						c-0.38,0.03-0.76,0.1-1.22,0.04c-0.22-0.04-0.47-0.11-0.65-0.33c-0.18-0.22-0.18-0.57-0.05-0.79c1.23-1.56,3.25-1.39,4.23-0.83
						c0.52,0.28,0.86,0.62,1.06,0.87c0.2,0.26,0.27,0.42,0.25,0.43c-0.05,0.05-0.41-0.61-1.42-1.09c-0.49-0.23-1.15-0.38-1.86-0.28
						c-0.67,0.09-1.54,0.43-1.94,1.05c-0.18,0.32,0.07,0.59,0.45,0.63c0.36,0.05,0.77,0,1.13-0.02c0.74-0.07,1.39-0.2,1.94-0.34
						C904.05,829.34,904.69,829.05,904.72,829.1z"/>
				</g>
			</g>
			<g>
				<g>
					<path class="st3" d="M904.32,829.39c-0.02,0.03-0.46-0.29-0.72-1.08c-0.13-0.39-0.19-0.89-0.1-1.44
						c0.13-0.51,0.28-1.2,1.01-1.49c0.41-0.13,1.38,0.7,1.44,1.01c0.1,0.31-0.49,0.15-0.52,0.41c-0.06,0.53-0.19,1-0.33,1.38
						c-0.29,0.76-0.62,1.14-0.65,1.12c-0.05-0.03,0.2-0.45,0.42-1.2c0.11-0.37,0.21-0.82,0.25-1.33c0.07-0.46-0.06-1.17-0.52-1.06
						c-0.44,0.15-0.68,0.76-0.78,1.22c-0.1,0.48-0.07,0.94,0.02,1.31C904.01,828.98,904.37,829.35,904.32,829.39z"/>
				</g>
			</g>
			<g>
				<g>
					<path class="st3" d="M931.88,814.76c0.02,0.06-0.78,0.27-1.9,0.95c-1.11,0.66-2.53,1.88-3.43,3.66
						c-0.9,1.77-1.06,3.64-0.95,4.93c0.11,1.3,0.41,2.08,0.35,2.1c-0.02,0.01-0.11-0.18-0.24-0.53c-0.13-0.35-0.27-0.88-0.36-1.54
						c-0.18-1.32-0.06-3.26,0.88-5.11c0.95-1.85,2.45-3.09,3.62-3.71c0.59-0.32,1.1-0.51,1.46-0.62
						C931.67,814.77,931.87,814.74,931.88,814.76z"/>
				</g>
			</g>
			<g>
				<g>
					<path class="st3" d="M921.53,825.52c0.05,0.08-1.54,1.12-3.67,2.09c-2.13,0.97-3.96,1.49-3.98,1.4
						c-0.03-0.1,1.73-0.75,3.84-1.72C919.82,826.33,921.48,825.44,921.53,825.52z"/>
				</g>
			</g>
			<g>
				<g>
					<path class="st3" d="M926.65,823.16c0.09,0.04,0.02,0.43,0.03,0.9c0,0.47,0.07,0.86-0.03,0.9c-0.08,0.04-0.32-0.35-0.32-0.9
						C926.32,823.51,926.56,823.12,926.65,823.16z"/>
				</g>
			</g>
			<g>
				<g>
					<path class="st3" d="M927.49,819.87c0.09,0.03,0.04,0.38-0.1,0.78c-0.15,0.4-0.34,0.69-0.43,0.66
						c-0.09-0.03-0.04-0.38,0.1-0.78C927.21,820.13,927.4,819.84,927.49,819.87z"/>
				</g>
			</g>
			<g>
				<g>
					<path class="st3" d="M929.76,817.52c0.02,0.1-0.33,0.25-0.65,0.56c-0.33,0.3-0.51,0.64-0.6,0.61
						c-0.09-0.02-0.04-0.49,0.37-0.87C929.28,817.44,929.75,817.42,929.76,817.52z"/>
				</g>
			</g>
			<g>
				<g>
					<path class="st3" d="M931.5,816.1c0.07,0.07-0.02,0.27-0.2,0.45c-0.18,0.18-0.38,0.28-0.45,0.21c-0.07-0.07,0.02-0.27,0.2-0.45
						C931.23,816.13,931.43,816.04,931.5,816.1z"/>
				</g>
			</g>
		</g>
	</g>
	<g>
		<g>
			<g>
				<g>
					<g>
						<g>
							<g>
								<g>
									<path class="st4" d="M899.12,481.09l-4.82-58.75l24.74,0.44c0,0,1.15-8.66-2.5-27.67c-2.24-11.65-10-18.8-18.7-23.05
										l0-0.16l-0.75-0.2c-11.07-5.18-22.66-5.91-22.66-5.91l-30.36,0.35c0,0-23.19-2.89-36.03,13.64
										c-4.95,6.37-20.25,49.96-20.25,49.96l36.44,17.55l-3.47-24.17c0,0,0.69,17.53,2.93,23.08c1.25,3.09,4.85,12.7,4.85,12.7
										l-0.47,28.99L899.12,481.09z"/>
								</g>
							</g>
						</g>
					</g>
				</g>
				<g>
					<polygon class="st4" points="882.37,413.81 877.87,433.01 920.38,433.01 917.58,400.82 					"/>
				</g>
				<g>
					<g>
						<path class="st3" d="M920.38,433.01c0.01-0.13-2.14-0.35-5.63-0.56c-3.48-0.2-8.31-0.38-13.63-0.35
							c-5.33,0.03-10.15,0.26-13.63,0.53c-3.48,0.28-5.62,0.57-5.61,0.69c0.01,0.13,2.17,0.07,5.65-0.03
							c3.48-0.11,8.29-0.23,13.6-0.26c5.31-0.02,10.12,0.04,13.61,0.08C918.22,433.15,920.37,433.14,920.38,433.01z"/>
					</g>
				</g>
				<g>
					<g>
						<path class="st3" d="M880.54,400.66c-0.13,0.01-0.17,1.87-0.14,4.88c0.03,3.01,0.14,7.17,0.32,11.76
							c0.18,4.59,0.39,8.75,0.59,11.75c0.2,3.01,0.39,4.86,0.52,4.86c0.13-0.01,0.17-1.87,0.14-4.88
							c-0.03-3.01-0.14-7.17-0.32-11.77c-0.18-4.59-0.39-8.75-0.59-11.75C880.86,402.51,880.67,400.66,880.54,400.66z"/>
					</g>
				</g>
				<g class="st8">
					<path d="M841.85,417.29c0,0,9.45,70.06,36.01,68.21c0,0,11.96-0.14,15.81-8.09v-3.13L841.85,417.29z"/>
				</g>
			</g>
		</g>
		<g class="st8">
			<polygon points="880.54,404.79 875.45,439.14 878.75,445.16 884.17,433.38 881.87,433.32 			"/>
		</g>
		<g>
			<g>
				<path class="st3" d="M828.55,458.91c-0.06,0.02-0.31-0.57-0.72-1.64c-0.41-1.07-0.96-2.64-1.6-4.6
					c-1.27-3.91-2.84-9.38-4.07-15.55c-1.22-6.17-1.82-11.84-2.01-15.95c-0.1-2.06-0.13-3.72-0.1-4.87
					c0.02-1.15,0.06-1.79,0.12-1.79c0.14,0,0.23,2.54,0.58,6.62c0.35,4.08,1.04,9.7,2.25,15.83c1.22,6.12,2.69,11.59,3.8,15.54
					c0.52,1.83,0.97,3.39,1.33,4.67C828.46,458.27,828.61,458.89,828.55,458.91z"/>
			</g>
		</g>
		<g>
			<g>
				<path class="st3" d="M839.29,479.05c-0.23,0.07-0.88-1.44-1.47-3.38c-0.58-1.93-0.87-3.56-0.65-3.62
					c0.23-0.07,0.88,1.44,1.47,3.38C839.23,477.35,839.52,478.98,839.29,479.05z"/>
			</g>
		</g>
		<g>
			<g>
				<path class="st3" d="M842.96,478.78c-0.22,0.06-0.94-2.21-0.97-5.12c-0.05-2.91,0.6-5.2,0.82-5.15
					c0.24,0.04-0.01,2.33,0.04,5.14C842.88,476.45,843.21,478.73,842.96,478.78z"/>
			</g>
		</g>
		<g>
			<g>
				<path class="st3" d="M824.98,448.11c-0.11,0.21-8.59-3.81-18.94-8.99c-10.36-5.18-18.67-9.54-18.56-9.75
					c0.11-0.21,8.59,3.81,18.94,8.99C816.77,443.53,825.08,447.9,824.98,448.11z"/>
			</g>
		</g>
	</g>
	<g>
		<g>
			<g>
				<g>
					<g>
						<g>
							<g>
								<g>
									<g>
										<path class="st6" d="M839.92,371.83c0.19-8.33,0.24-17.1,0.24-17.1s-10.68-2.06-12.54-16.11
											c-1.77-13.4,3.19-44.85,3.19-44.85l0,0c15.6-5.9,31.81-0.55,42.5,12.09l0,0l-2.65,67.6c-0.31,7.85-7.3,13.83-15.7,13.44h0
											C846.47,386.51,839.74,379.77,839.92,371.83z"/>
									</g>
								</g>
							</g>
							<g>
								<g>
									<g>
										<g>
											<path class="st3" d="M830,318.91c-0.06,0.95,0.7,1.78,1.68,1.86c0.99,0.08,1.83-0.62,1.89-1.57
												c0.06-0.95-0.7-1.78-1.68-1.86C830.9,317.26,830.05,317.96,830,318.91z"/>
										</g>
									</g>
								</g>
								<g>
									<g>
										<g>
											<g>
												<path class="st3" d="M829.33,316.55c0.22,0.24,1.6-0.73,3.53-0.68c1.93,0.03,3.32,1.06,3.54,0.83
													c0.11-0.1-0.11-0.53-0.72-1c-0.6-0.46-1.62-0.92-2.82-0.95c-1.2-0.02-2.23,0.39-2.82,0.83
													C829.43,316.03,829.22,316.44,829.33,316.55z"/>
											</g>
										</g>
									</g>
								</g>
							</g>
							<g>
								<g>
									<g>
										<g>
											<path class="st3" d="M849.59,320.13c-0.06,0.95,0.7,1.78,1.68,1.86c0.99,0.08,1.83-0.62,1.89-1.57
												c0.06-0.95-0.7-1.78-1.68-1.86C850.5,318.48,849.65,319.18,849.59,320.13z"/>
										</g>
									</g>
								</g>
								<g>
									<g>
										<g>
											<g>
												<path class="st3" d="M849.46,317.77c0.22,0.24,1.6-0.73,3.53-0.68c1.93,0.03,3.32,1.06,3.54,0.83
													c0.1-0.1-0.11-0.53-0.72-1c-0.6-0.46-1.62-0.92-2.82-0.95c-1.2-0.02-2.23,0.39-2.82,0.83
													C849.57,317.25,849.36,317.67,849.46,317.77z"/>
											</g>
										</g>
									</g>
								</g>
							</g>
							<g>
								<g>
									<g>
										<g>
											<path class="st3" d="M842.08,331.92c0.01-0.11-1.18-0.35-3.12-0.65c-0.49-0.06-0.96-0.17-1.03-0.51
												c-0.11-0.36,0.11-0.89,0.37-1.45c0.49-1.18,1.01-2.42,1.56-3.72c2.16-5.29,3.74-9.65,3.53-9.74
												c-0.21-0.09-2.14,4.14-4.3,9.43c-0.52,1.31-1.02,2.55-1.49,3.74c-0.2,0.56-0.54,1.18-0.31,1.93
												c0.12,0.37,0.48,0.65,0.79,0.74c0.31,0.1,0.59,0.12,0.83,0.14C840.86,331.99,842.07,332.03,842.08,331.92z"/>
										</g>
									</g>
								</g>
							</g>
							<g>
								<g>
									<g>
										<path class="st7" d="M840.16,354.74c0,0,9.4,0.85,18.87-4.52c0,0-4.79,9.5-18.77,7.82L840.16,354.74z"/>
									</g>
								</g>
							</g>
						</g>
					</g>
				</g>
			</g>
		</g>
		<g>
			<g>
				<path class="st3" d="M855.64,312.2c-0.4,0.6-1.87,0.34-3.51,0.04c-1.64-0.33-3.1-0.62-3.25-1.33c-0.16-0.68,1.54-1.62,3.73-1.2
					C854.81,310.13,856.04,311.63,855.64,312.2z"/>
			</g>
		</g>
		<g>
			<g>
				<path class="st3" d="M836.44,309.37c-0.15,0.7-1.72,0.96-3.54,1.05c-1.82,0.07-3.4-0.04-3.62-0.72
					c-0.22-0.67,1.32-1.75,3.5-1.84C834.97,307.75,836.59,308.68,836.44,309.37z"/>
			</g>
		</g>
		<g>
			<path class="st7" d="M842.11,336.54c-0.41-0.11-0.86,0.12-1.07,0.49c-0.24,0.44-0.13,1.04,0.25,1.37c0.38,0.32,1,0.33,1.39,0.02
				c0.39-0.31,0.52-0.91,0.29-1.36c-0.23-0.45-0.8-0.69-1.28-0.55"/>
		</g>
		<g>
			<g>
				<path class="st3" d="M842.57,336.73c0.09-0.08-0.31-0.55-1.15-0.37c-0.39,0.09-0.9,0.44-1.06,1.03
					c-0.16,0.56-0.02,1.29,0.58,1.75c0.62,0.44,1.36,0.35,1.85,0.01c0.53-0.35,0.68-0.98,0.59-1.37c-0.17-0.87-0.81-1.01-0.83-0.89
					c-0.07,0.11,0.22,0.41,0.17,0.92c-0.03,0.25-0.15,0.49-0.39,0.6c-0.24,0.13-0.62,0.13-0.84-0.04c-0.23-0.16-0.34-0.52-0.3-0.8
					c0.03-0.28,0.22-0.48,0.44-0.61C842.1,336.73,842.51,336.85,842.57,336.73z"/>
			</g>
		</g>
		<g>
			<g>
				<path class="st3" d="M866.84,322.38c-1.67,3.86-5.73,6.83-5.16,11c0.36,2.69,2.09,5.2,1.75,7.89c-0.42,3.38-3.93,5.72-4.43,9.09
					c-0.61,4.13,3.41,7.35,5.02,11.21c2.34,5.62-0.65,11.94-0.72,18.02c-0.11,9.32,7.82,18.03,17.11,18.79
					c3.76,0.31,7.99-0.82,9.94-4.05c1.61-2.66,1.29-6.05,2.25-9c1.44-4.4,5.63-7.63,6.52-12.18c1.61-8.29-8.41-15.15-7.75-23.57
					c0.28-3.6,2.5-6.74,3.45-10.22c1.24-4.56,0.1-9.7-2.94-13.32c-2.47-2.94-6.06-4.87-8.17-8.09c-2.39-3.64-2.47-8.26-3.37-12.53
					c-2.19-10.39-10-19.41-19.96-23.08c-9.96-3.67-21.75-1.88-30.17,4.6c0,0-2.39,10.85,8.74,12.66c11.13,1.81,16.3-0.28,17.55,4.18
					c0,0-1.27,5.21,3.34,10.19C864.44,318.96,868.77,317.91,866.84,322.38z"/>
			</g>
			<g>
				<g>
					<path class="st5" d="M884.61,397.62c0,0.03-0.35-0.01-1.02-0.11c-0.66-0.1-1.63-0.32-2.83-0.76c-2.38-0.87-5.75-2.76-8.62-6.38
						c-1.43-1.79-2.76-3.96-3.66-6.52c-0.92-2.54-1.45-5.42-1.5-8.45c-0.07-3.03,0.36-6.21,1.19-9.4c0.41-1.59,0.95-3.18,1.58-4.76
						c0.62-1.59,1.37-3.11,1.81-4.73c0.47-1.61,0.4-3.26-0.02-4.83c-0.43-1.57-1.16-3.05-1.87-4.51c-0.72-1.46-1.45-2.91-1.92-4.46
						c-0.48-1.53-0.66-3.19-0.35-4.73c0.66-3.1,2.54-5.4,3.65-7.75c1.18-2.33,1.54-4.8,1.49-7.01c-0.2-4.48-2.11-7.8-3.67-9.71
						c-1.63-1.91-2.86-2.64-2.8-2.72c0,0,1.31,0.62,3.05,2.51c1.67,1.89,3.73,5.25,4.02,9.9c0.1,2.29-0.25,4.89-1.46,7.35
						c-1.14,2.44-2.95,4.75-3.51,7.59c-0.58,2.86,0.78,5.8,2.24,8.67c0.72,1.46,1.48,2.97,1.94,4.65c0.46,1.67,0.53,3.55,0.02,5.27
						c-0.47,1.73-1.24,3.27-1.84,4.82c-0.62,1.55-1.15,3.1-1.56,4.66c-0.82,3.11-1.26,6.22-1.21,9.17
						c0.02,5.93,2.06,11.12,4.85,14.61c2.73,3.57,5.97,5.49,8.26,6.44C883.21,397.38,884.63,397.52,884.61,397.62z"/>
				</g>
			</g>
			<g>
				<g>
					<path class="st5" d="M882.97,314.56c0.01,0.05-0.86,0.21-2.45,0.37c-1.58,0.13-3.92,0.32-6.78-0.18
						c-2.79-0.51-6.32-1.88-8.55-5.19c-1.1-1.66-1.53-3.67-2.25-5.53c-0.67-1.88-1.97-3.5-3.75-4.63c-3.6-2.28-7.84-2.56-11.54-3.01
						c-3.73-0.42-7.22-1.21-9.59-2.99c-2.39-1.7-3.61-3.91-3.93-5.5c-0.18-0.8-0.16-1.44-0.13-1.86c0.06-0.42,0.11-0.64,0.13-0.63
						c0.1,0-0.11,0.9,0.32,2.41c0.4,1.49,1.63,3.52,3.95,5.08c2.28,1.62,5.63,2.32,9.34,2.7c3.67,0.41,8.06,0.64,11.92,3.08
						c1.9,1.19,3.38,3.05,4.07,5.04c0.73,1.96,1.14,3.89,2.13,5.4c2.01,3.06,5.33,4.46,8.01,5.02c2.75,0.55,5.06,0.47,6.64,0.44
						C882.08,314.55,882.96,314.5,882.97,314.56z"/>
				</g>
			</g>
			<g>
				<g>
					<path class="st5" d="M878.89,301.16c0.01,0.04-0.66,0.25-1.93,0.28c-1.25,0.04-3.13-0.19-5.2-1.17
						c-1.03-0.49-2.09-1.19-3.06-2.13c-0.99-0.93-1.8-2.14-2.55-3.41c-1.49-2.5-2.91-5.59-5.99-6.87c-3.02-1.29-6.34-1.01-9.22-0.81
						c-2.91,0.29-5.64,0.37-7.87-0.07c-2.24-0.39-3.92-1.32-4.86-2.18c-0.47-0.43-0.79-0.8-0.97-1.09
						c-0.18-0.28-0.27-0.43-0.24-0.45c0.07-0.05,0.46,0.53,1.42,1.27c0.96,0.74,2.58,1.54,4.75,1.84c2.17,0.35,4.78,0.21,7.7-0.12
						c2.9-0.23,6.32-0.59,9.64,0.81c1.64,0.7,2.98,1.93,3.93,3.26c0.97,1.33,1.66,2.73,2.4,3.99c0.73,1.26,1.47,2.41,2.37,3.3
						c0.89,0.9,1.87,1.59,2.83,2.09c1.93,1,3.72,1.31,4.93,1.38C878.19,301.18,878.88,301.09,878.89,301.16z"/>
				</g>
			</g>
			<g>
				<g>
					<path class="st5" d="M889.52,394.07c-0.08-0.04,0.44-1.1,1.05-3.12c0.6-2.02,1.2-5.06,1.1-8.82
						c-0.13-3.74-1.03-8.27-3.51-12.57c-1.2-2.16-3.03-4.08-4.52-6.44c-0.74-1.18-1.38-2.51-1.66-3.97
						c-0.28-1.47-0.11-3.03,0.36-4.44c0.92-2.84,2.58-5.23,2.93-7.85c0.44-2.62-0.88-5.01-2.14-7.14c-0.63-1.08-1.27-2.15-1.76-3.27
						c-0.49-1.12-0.81-2.3-0.93-3.44c-0.25-2.29,0.02-4.39,0.19-6.28c0.48-3.76,0.13-6.85-0.78-8.75c-0.88-1.92-2.03-2.5-1.94-2.58
						c0.01-0.01,0.08,0.02,0.2,0.09c0.12,0.08,0.31,0.18,0.52,0.38c0.44,0.36,1.03,0.99,1.52,1.96c1.04,1.92,1.49,5.15,1.08,8.94
						c-0.13,1.89-0.35,3.97-0.08,6.14c0.22,2.19,1.35,4.25,2.67,6.39c0.64,1.08,1.32,2.21,1.79,3.5c0.49,1.27,0.71,2.73,0.5,4.16
						c-0.4,2.88-2.1,5.31-2.95,7.99c-0.44,1.34-0.58,2.71-0.34,4.03c0.25,1.32,0.83,2.55,1.53,3.68c1.41,2.27,3.25,4.23,4.49,6.49
						c2.53,4.47,3.38,9.12,3.43,12.95c0.03,3.85-0.68,6.92-1.38,8.94c-0.37,1.01-0.68,1.78-0.95,2.27
						C889.69,393.82,889.55,394.08,889.52,394.07z"/>
				</g>
			</g>
		</g>
	</g>
	<g>
		<g>
			<path class="st3" d="M822.48,700.74c0,0-11.08-105.08-11.72-143.91c-0.64-38.83,17.46-77.14,17.46-77.14l70.91-3
				c0,0,14.02,39.4,14.27,55.94c0.49,32.16-8.54,63.92-7.5,89.43l2.37,78.67"/>
		</g>
		<g>
			<g>
				<path class="st9" d="M910.63,571.56c0.01,0.03-0.39,0.33-1.16,0.88c-0.2,0.14-0.41,0.29-0.65,0.46
					c-0.22,0.19-0.44,0.43-0.69,0.66c-0.5,0.48-1.08,1.02-1.58,1.77c-2.29,2.8-3.96,7.81-5.55,14.06c-0.87,3.1-1.76,6.59-3.59,10
					c-0.49,0.83-0.93,1.71-1.57,2.49c-0.31,0.39-0.59,0.82-0.93,1.2l-1.09,1.09c-1.48,1.46-3.36,2.55-5.33,3.42
					c-3.97,1.74-8.45,2.57-12.54,4.62c-4.12,2.01-7.21,5.9-9.1,10.37c-2,4.46-3.21,9.14-4.87,13.51c-1.64,4.34-3.86,8.56-7.4,11.23
					c-3.51,2.76-7.85,3.4-11.6,3.64c-3.82,0.22-7.35,0.11-10.52,0.59c-3.16,0.44-5.96,1.44-7.94,3c-1.98,1.56-3.14,3.52-3.69,5.19
					c-0.56,1.7-0.46,3.13-0.27,4.04c0.18,0.92,0.44,1.37,0.39,1.39c0,0-0.31-0.42-0.55-1.35c-0.25-0.92-0.41-2.4,0.12-4.17
					c0.52-1.75,1.67-3.8,3.71-5.47c2.05-1.67,4.92-2.73,8.15-3.22c3.23-0.53,6.8-0.45,10.57-0.7c3.72-0.27,7.87-0.92,11.17-3.56
					c3.34-2.54,5.49-6.6,7.1-10.9c1.64-4.32,2.84-9.01,4.88-13.57c1.91-4.56,5.19-8.69,9.5-10.77c4.26-2.11,8.74-2.91,12.61-4.59
					c1.93-0.84,3.72-1.87,5.13-3.25l1.05-1.03c0.33-0.36,0.6-0.77,0.89-1.14c0.62-0.74,1.06-1.59,1.54-2.39
					c1.8-3.29,2.72-6.74,3.63-9.82c1.66-6.22,3.45-11.31,5.87-14.11c0.53-0.75,1.14-1.28,1.67-1.75c0.26-0.23,0.49-0.46,0.73-0.64
					c0.25-0.15,0.47-0.3,0.68-0.43C910.19,571.79,910.62,571.53,910.63,571.56z"/>
			</g>
		</g>
		<g>
			<g>
				<path class="st9" d="M911.07,522.93c0.03,0,0.06,0.48,0.09,1.41c0.01,0.92-0.1,2.3-0.49,4.02c-0.82,3.43-3.33,8.13-8.01,12.39
					c-2.32,2.14-5.11,4.2-8.3,6.07c-3.18,1.89-6.68,3.68-10.27,5.71c-3.58,2.03-7.27,4.34-10.51,7.39
					c-3.28,3.02-5.75,6.99-7.96,11.19c-2.24,4.19-4.22,8.47-6.9,12.16c-1.33,1.85-2.84,3.53-4.5,4.98c-1.67,1.43-3.5,2.6-5.35,3.57
					c-3.72,1.93-7.51,3.12-11.02,4.22c-3.52,1.09-6.8,2.05-9.67,3.25c-2.87,1.19-5.36,2.53-7.38,3.95
					c-2.01,1.42-3.54,2.92-4.63,4.27c-2.19,2.72-2.65,4.68-2.78,4.62c-0.03-0.01,0.13-0.47,0.46-1.33c0.38-0.84,0.97-2.09,2.06-3.49
					c1.06-1.41,2.59-2.97,4.61-4.45c2.02-1.49,4.53-2.88,7.42-4.12c2.89-1.25,6.19-2.26,9.69-3.37c3.49-1.13,7.24-2.34,10.86-4.24
					c1.81-0.96,3.57-2.1,5.19-3.49c1.6-1.4,3.06-3.04,4.35-4.85c2.61-3.62,4.58-7.85,6.83-12.07c2.22-4.22,4.76-8.3,8.14-11.4
					c3.33-3.12,7.09-5.44,10.7-7.47c3.62-2.02,7.13-3.79,10.3-5.63c3.18-1.82,5.95-3.82,8.26-5.9c4.66-4.14,7.19-8.69,8.1-12.02
					C911.23,524.91,910.94,522.93,911.07,522.93z"/>
			</g>
		</g>
		<g>
			<g>
				<path class="st9" d="M811.11,562.4c-0.01,0.01-0.06-0.1-0.14-0.32c-0.07-0.22-0.22-0.54-0.32-0.98
					c-0.2-0.88-0.33-2.27,0.17-3.95c0.92-3.35,4.56-7.52,10.42-9.61c2.92-1,6.23-1.61,9.68-2.51c3.41-0.92,7.13-2.21,9.9-5.06
					c1.38-1.41,2.54-3.08,3.51-4.92c0.94-1.86,1.72-3.85,2.46-5.91c1.48-4.11,2.71-8.57,5.22-12.62c2.49-4.09,6.54-6.93,10.74-8.35
					c4.18-1.54,8.4-2.22,12.32-3.12c3.93-0.85,7.6-1.96,10.71-3.65c3.07-1.74,5.52-4.07,7.25-6.53c3.55-4.94,4.48-9.99,4.61-13.33
					c0.08-3.4-0.46-5.24-0.35-5.26c0,0,0.66,1.82,0.68,5.27c-0.03,3.39-0.87,8.57-4.45,13.68c-1.75,2.55-4.23,4.97-7.4,6.8
					c-3.19,1.77-6.94,2.92-10.88,3.8c-3.94,0.93-8.13,1.63-12.2,3.14c-4.1,1.41-7.91,4.1-10.3,8.02c-2.42,3.91-3.66,8.32-5.15,12.45
					c-0.75,2.07-1.54,4.1-2.52,6.01c-1.01,1.89-2.23,3.64-3.68,5.11c-2.95,2.99-6.83,4.29-10.28,5.18c-3.5,0.88-6.79,1.45-9.67,2.4
					c-5.71,1.95-9.33,5.94-10.3,9.13c-0.52,1.6-0.46,2.94-0.31,3.81C811,561.93,811.15,562.39,811.11,562.4z"/>
			</g>
		</g>
		<g>
			<g>
				<path class="st9" d="M904.97,651.25c0.03,0,0.07,0.35,0.11,1.03c0.04,0.68-0.01,1.7-0.3,2.97c-0.58,2.54-2.54,6-6.22,8.89
					c-1.81,1.46-4.01,2.8-6.53,3.88c-2.51,1.08-5.29,1.93-8.19,2.83c-2.9,0.9-5.94,1.85-8.9,3.25c-2.98,1.36-5.73,3.36-8.1,5.91
					c-2.4,2.52-4.47,5.26-6.77,7.69c-2.29,2.44-4.89,4.45-7.59,5.94c-5.42,2.99-11.03,4.02-15.65,4.07
					c-4.66,0.05-8.35-0.93-10.77-1.79c-1.22-0.43-2.13-0.85-2.73-1.17c-0.61-0.3-0.92-0.48-0.91-0.5c0.01-0.03,0.35,0.09,0.98,0.34
					c0.62,0.27,1.54,0.64,2.77,1.01c2.43,0.76,6.09,1.63,10.66,1.5c4.54-0.13,10.02-1.2,15.28-4.15c2.62-1.47,5.12-3.42,7.36-5.82
					c2.25-2.39,4.31-5.14,6.76-7.7c2.41-2.6,5.31-4.7,8.36-6.08c3.04-1.42,6.12-2.36,9.03-3.25c2.91-0.88,5.68-1.71,8.15-2.73
					c2.47-1.02,4.63-2.3,6.43-3.7c3.64-2.76,5.61-6.06,6.27-8.5C905.11,652.7,904.85,651.25,904.97,651.25z"/>
			</g>
		</g>
	</g>
	<g>
		<path class="st6" d="M896.89,433.08l-13.71,0.32c-0.9,4.62-3.1,7.78-3.1,7.78c-11.47-19.9-20.35-46.57-22.56-57.28
			c0.32-1.07,0.7-2.25,1.18-3.58c0.55-1.53,0.08-4.42-0.18-6.03c-0.38-2.39-1.05-5.6-1.25-7.08c-0.61-4.53-1.34-5.24-2.92-4.73
			c-2.15,0.7,0.88,12.72-0.88,12.98c-0.95,0.14-2.1-3.98-2.44-7.36c-0.34-3.38-1.86-13.77-2.98-14.47
			c-1.64-1.02-3.06,0.59-2.65,3.96c0.42,3.41,0.95,13.56-0.84,13.7c-1.76,0.14-3.24-17.1-3.24-17.1s0.28-3.75-1.79-3.66
			c-3.73,0.16-0.82,18.33-0.5,20.05c0.22,1.2-1.71,1.42-1.88,0.12c-0.18-1.34-1.08-17.23-4.87-17.11
			c-2.91,0.1,2.26,14.97,0.62,18.42c-1.64,3.45-2.77-11.71-5.56-11.5c-1.04,0.08-1.8,0.28,0.1,8.86c1.02,4.61,4.03,13.09,6.65,20.1
			c4.41,23.78,23.76,99.87,54.1,85.94c16.98-7.79,23.86-42.33,23.86-42.33L896.89,433.08z"/>
		<g>
			<g>
				<path class="st7" d="M838.38,371.75c0,0,0.14,0.02,0.39-0.05c0.23-0.07,0.69-0.36,0.62-0.95c-0.04-1.02-0.2-2.51-0.44-4.43
					c-0.18-1.94-0.76-4.26-0.76-7.01c-0.02-1.38,0.01-2.86,0.09-4.43c0.05-0.78,0.06-1.6,0.24-2.37c0.13-0.75,0.63-1.6,1.2-1.5
					l0.06,0.01l0.03,0c0.59-0.03,1.04,0.43,1.23,1.13c0.21,0.67,0.26,1.45,0.22,2.2l0,0.03l0,0.02c0.38,4.21,0.8,8.82,1.76,13.74
					c0.13,0.61,0.27,1.23,0.46,1.86c0.1,0.31,0.21,0.63,0.34,0.94c0.09,0.16,0.14,0.32,0.28,0.49c0.12,0.14,0.27,0.39,0.69,0.43
					c0.68-0.05,0.88-0.57,1.04-0.86c0.15-0.34,0.24-0.68,0.31-1.01c0.14-0.67,0.21-1.34,0.26-2.01c0.18-2.68,0.09-5.42-0.11-8.23
					c-0.06-1.42-0.41-2.84-0.17-4.12c0.11-0.63,0.38-1.27,0.81-1.54c0.21-0.13,0.45-0.16,0.71-0.09c0.13,0.04,0.26,0.09,0.39,0.17
					c0.11,0.1,0.08,0.06,0.18,0.24c0.55,1.18,0.83,2.71,1.14,4.14c0.29,1.46,0.54,2.94,0.78,4.44c0.23,1.5,0.44,3.02,0.62,4.55
					c0.15,1.53,0.37,3.14,0.76,4.68c0.2,0.78,0.42,1.55,0.74,2.33c0.17,0.39,0.34,0.77,0.68,1.16c0.12,0.17,0.51,0.48,0.99,0.36
					c0.46-0.16,0.6-0.52,0.67-0.74c0.27-0.95,0.19-1.73,0.17-2.56c-0.04-0.82-0.1-1.62-0.17-2.43c-0.12-1.39-0.25-2.76-0.3-4.11
					c-0.02-0.67-0.02-1.35,0.05-1.98c0.04-0.31,0.09-0.63,0.2-0.86c0.05-0.12,0.11-0.2,0.16-0.24c0.03-0.03,0.04-0.01,0.06-0.04
					l0.21-0.06c1.09-0.45,1.45,1.07,1.74,2.29c0.25,1.28,0.41,2.6,0.67,3.89c0.43,2.59,0.99,5.17,1.28,7.64
					c0.12,1.23,0.21,2.5-0.14,3.54c-0.39,1.19-0.77,2.37-1.16,3.53l-0.03,0.11l0.03,0.11c2.01,8.85,4.78,16.77,7.36,23.8
					c2.61,7.02,5.21,13.09,7.51,18.06c2.29,4.97,4.35,8.8,5.77,11.41c0.72,1.24,1.29,2.22,1.71,2.94c0.4,0.66,0.61,1,0.64,0.99
					c0.02-0.01-0.15-0.38-0.51-1.06c-0.39-0.74-0.92-1.74-1.59-3.01c-1.34-2.65-3.31-6.51-5.53-11.5
					c-2.22-4.98-4.76-11.06-7.31-18.09c-2.52-7.02-5.25-14.96-7.2-23.72l-0.01,0.22c0.38-1.15,0.76-2.31,1.15-3.48
					c0.44-1.34,0.31-2.65,0.2-3.94c-0.29-2.57-0.83-5.08-1.26-7.68c-0.25-1.29-0.41-2.61-0.68-3.96c-0.16-0.67-0.3-1.35-0.67-2.04
					c-0.18-0.33-0.45-0.71-0.91-0.92c-0.46-0.2-0.93-0.14-1.3-0.05l-0.28,0.08c-0.12,0.06-0.28,0.12-0.37,0.21
					c-0.21,0.18-0.33,0.39-0.42,0.59c-0.17,0.39-0.22,0.76-0.27,1.12c-0.08,0.72-0.08,1.42-0.06,2.12c0.05,1.4,0.18,2.78,0.3,4.16
					c0.07,0.8,0.14,1.6,0.17,2.39c0.03,0.77,0.06,1.62-0.12,2.21c-0.04,0.17-0.12,0.14-0.03,0.22l0,0.01
					c-0.01-0.06,0.01,0.08,0.01,0.06l0-0.02c0-0.02,0-0.04,0-0.06c0.01-0.01,0.04-0.07,0.02-0.08c-0.01,0-0.05-0.03-0.1-0.09
					c-0.18-0.21-0.36-0.55-0.5-0.89c-0.29-0.69-0.51-1.44-0.7-2.18c-0.38-1.51-0.59-3.01-0.74-4.56c-0.18-1.55-0.4-3.07-0.64-4.59
					c-0.24-1.51-0.5-3-0.79-4.48c-0.34-1.48-0.56-2.91-1.25-4.4c-0.04-0.15-0.34-0.48-0.52-0.58c-0.19-0.11-0.39-0.2-0.61-0.26
					c-0.44-0.12-0.98-0.07-1.39,0.19c-0.82,0.54-1.07,1.4-1.22,2.14c-0.13,0.77-0.11,1.52-0.03,2.26c0.08,0.7,0.15,1.39,0.21,2.09
					c0.21,2.77,0.31,5.5,0.15,8.11c-0.05,0.65-0.11,1.29-0.24,1.9c-0.06,0.3-0.14,0.6-0.25,0.85c-0.05,0.12-0.12,0.24-0.18,0.31
					c-0.06,0.14-0.11-0.03-0.11,0.19c0.08-0.17,0-0.08-0.06-0.22c-0.07-0.08-0.13-0.23-0.2-0.34c-0.12-0.27-0.22-0.55-0.31-0.84
					c-0.18-0.58-0.32-1.19-0.46-1.79c-0.98-4.83-1.44-9.46-1.86-13.64l0,0.05c0.04-0.85-0.02-1.65-0.27-2.45
					c-0.13-0.39-0.31-0.79-0.64-1.1c-0.33-0.32-0.8-0.46-1.22-0.45l0.09,0.01c-0.66-0.12-1.14,0.28-1.42,0.68
					c-0.28,0.41-0.41,0.85-0.51,1.28c-0.18,0.86-0.18,1.69-0.22,2.47c-0.06,1.58-0.07,3.07-0.03,4.47c0.05,2.81,0.68,5.13,0.91,7.05
					c0.29,1.91,0.5,3.4,0.59,4.4c0.1,0.48-0.28,0.78-0.48,0.86C838.51,371.72,838.37,371.73,838.38,371.75z"/>
			</g>
		</g>
	</g>
	<path class="st6" d="M731.19,455.74c0,0-4.55-0.22-9.53,1.09c-8.5,2.24-23.17,11.13-23.78,22.11h10.66c0,0-5.97,12.7-4.21,11.53
		c4.55-3.05,13.61-12.26,13.61-12.26L731.19,455.74z"/>
	<g>
		<g>
			<g>
				<path class="st3" d="M876.56,264.5c-0.24,0.02-1.2-8.79-2.16-19.68c-0.96-10.89-1.54-19.74-1.31-19.76
					c0.24-0.02,1.2,8.79,2.16,19.68C876.21,255.64,876.8,264.48,876.56,264.5z"/>
			</g>
		</g>
		<g>
			<g>
				<path class="st3" d="M923.32,225.61c0.19,0.14-7.01,10.59-16.08,23.34c-9.08,12.76-16.59,22.98-16.78,22.84
					c-0.19-0.14,7.01-10.59,16.08-23.34C915.61,235.7,923.13,225.47,923.32,225.61z"/>
			</g>
		</g>
		<g>
			<g>
				<path class="st3" d="M942.75,272.97c0.05,0.23-8.36,2.15-18.77,4.29c-10.41,2.14-18.89,3.69-18.94,3.46
					c-0.05-0.23,8.35-2.15,18.77-4.29C934.22,274.29,942.7,272.74,942.75,272.97z"/>
			</g>
		</g>
	</g>
</g>
<g>
	<g>
		<path class="st4" d="M382.96,499.04l-58.2,299.22l-7.62,39.17l388.54-1.92c17.44-0.09,32.89-15.57,38.5-38.57l68.9-282.5
			c4.26-17.46-5.09-35.62-18.32-35.61l-393.24,0.41C392.82,479.27,385.23,487.37,382.96,499.04z"/>
	</g>
	<g class="st10">
		<path d="M382.96,499.04l-58.2,299.22l-7.62,39.17l388.54-1.92c17.44-0.09,32.89-15.57,38.5-38.57l68.9-282.5
			c4.26-17.46-5.09-35.62-18.32-35.61l-393.24,0.41C392.82,479.27,385.23,487.37,382.96,499.04z"/>
	</g>
	<g>
		<path class="st4" d="M668.41,777.99l-41.14-331.5c-1.69-13.58-12.51-23.71-25.28-23.67l-90.21,0.29
			c-6.68,0.02-13.08,2.86-17.82,7.9l-42.83,45.53l-250.88,1.31c-15.33,0.08-27.11,14.59-25.08,30.89l38.19,306.39
			c1.69,13.56,12.49,23.68,25.25,23.66l437.23-0.86c48.7,1.01,53.35-13.37,53.35-13.37C673.38,836.93,668.41,778.03,668.41,777.99z"
			/>
	</g>
	<g class="st10">
		<polygon class="st11" points="479.88,711.65 465.13,727.49 351.56,625.32 366.31,609.48 		"/>
		<polygon class="st11" points="458.95,605.97 475.25,620.63 372.49,731 356.19,716.34 		"/>
	</g>
</g>
<g>
	<g>
		<g>
			<g>
				<path class="st4" d="M730.84,283.83c-1.05-0.45-1.81-1.47-1.86-2.69l-0.66-15.28c-0.04-0.96,0.37-1.89,1.11-2.5
					c0.74-0.61,1.73-0.84,2.66-0.62c2.46,0.58,5.16,0.04,7.43-1.47c2.09-1.39,3.49-3.44,3.84-5.63c0.36-2.18-0.32-4.58-1.85-6.61
					c-1.64-2.17-4.06-3.63-6.49-3.91c-4.96-0.57-10.31,3.23-11.68,8.29c-0.44,1.64-2.13,2.6-3.77,2.16
					c-1.66-0.46-2.6-2.13-2.16-3.77c2.16-7.96,10.38-13.7,18.32-12.78c4.11,0.47,8.01,2.77,10.68,6.3c2.54,3.36,3.63,7.48,3.01,11.3
					c-0.63,3.86-3,7.41-6.49,9.75c-2.53,1.69-5.43,2.62-8.33,2.72l0.51,11.78c0.07,1.69-1.24,3.13-2.94,3.2
					C731.7,284.09,731.25,284,730.84,283.83z"/>
			</g>
		</g>
		<g>
			<g>
				<path class="st4" d="M735.34,290.07c0.1,1.38-0.95,2.58-2.33,2.68c-1.38,0.1-2.58-0.95-2.68-2.33c-0.1-1.38,0.95-2.58,2.33-2.68
					S735.25,288.69,735.34,290.07z"/>
			</g>
		</g>
	</g>
	<g>
		<g>
			<g>
				<path class="st3" d="M677.95,262.28c0.02,0,0.07-0.34,0.15-1c0.08-0.72,0.19-1.69,0.32-2.94c0.07-1.3,0.41-2.87,0.8-4.73
					c0.22-0.92,0.33-1.95,0.67-2.98c0.32-1.04,0.66-2.15,1.02-3.32c1.59-4.62,4.05-10.17,8.19-15.68c4.1-5.5,9.88-10.94,17.29-15.06
					c3.65-2.18,7.82-3.69,12.2-5.03c4.44-1.05,9.15-1.95,14.07-1.84c2.46-0.13,4.94,0.23,7.47,0.44c1.26,0.12,2.51,0.46,3.77,0.68
					c1.27,0.23,2.54,0.48,3.79,0.91c5.08,1.3,10.02,3.7,14.72,6.67c9.44,5.94,17.39,15.6,21.76,27.32
					c2.19,5.86,3.23,12.29,3.23,18.78c0.13,6.5-1.13,13.11-3.44,19.33l-0.74,1.88l-0.1,0.25l0.1,0.23
					c4.13,9.51,8.18,18.83,12.1,27.87l0.69-0.79c-8.5-3.27-16.74-6.43-24.65-9.47l-0.3-0.12l-0.24,0.23
					c-6.84,6.63-15.01,11.11-23.28,13.44c-8.3,2.34-16.65,2.46-24.25,1.11c-7.62-1.35-14.47-4.26-20.19-8.01
					c-5.73-3.74-10.33-8.3-13.88-12.92c-3.52-4.68-5.84-9.47-7.59-13.76c-1.54-4.38-2.49-8.26-2.94-11.48
					c-0.19-1.61-0.37-3.04-0.52-4.28c-0.03-1.23-0.06-2.28-0.08-3.15c-0.03-0.81-0.05-1.45-0.06-1.93
					C677.98,262.5,677.97,262.28,677.95,262.28c-0.02,0-0.03,0.22-0.04,0.65c-0.01,0.48-0.01,1.12-0.03,1.93
					c0,0.87,0,1.93-0.01,3.16c0.13,1.26,0.27,2.7,0.44,4.32c0.41,3.25,1.3,7.18,2.81,11.62c1.72,4.35,4.02,9.22,7.55,13.99
					c3.55,4.72,8.18,9.36,13.98,13.2c5.78,3.83,12.73,6.83,20.46,8.24c7.71,1.41,16.21,1.32,24.66-1.03
					c8.42-2.35,16.76-6.89,23.74-13.63l-0.54,0.11c7.9,3.05,16.14,6.23,24.64,9.51l1.24,0.48l-0.55-1.27
					c-3.92-9.04-7.96-18.37-12.08-27.88l0,0.48l0.76-1.92c2.37-6.36,3.65-13.11,3.52-19.76c0-6.63-1.08-13.2-3.32-19.19
					c-4.47-11.97-12.6-21.8-22.24-27.83c-4.8-3.02-9.83-5.44-15.01-6.75c-1.27-0.43-2.56-0.68-3.85-0.92
					c-1.29-0.22-2.56-0.56-3.84-0.68c-2.57-0.21-5.09-0.56-7.59-0.42c-5-0.1-9.78,0.84-14.29,1.93c-4.44,1.38-8.66,2.95-12.35,5.17
					c-7.49,4.23-13.3,9.78-17.41,15.39c-4.14,5.62-6.56,11.25-8.11,15.94c-0.35,1.19-0.67,2.31-0.98,3.37
					c-0.32,1.05-0.42,2.09-0.62,3.02c-0.36,1.88-0.66,3.46-0.69,4.78c-0.09,1.26-0.16,2.24-0.21,2.96
					C677.94,261.94,677.93,262.28,677.95,262.28z"/>
			</g>
		</g>
	</g>
</g>
</svg>
