<?xml version="1.0" encoding="utf-8"?>
<!-- Generator: Adobe Illustrator 24.1.2, SVG Export Plug-In . SVG Version: 6.00 Build 0)  -->
<svg version="1.1" id="Layer_1" xmlns="http://www.w3.org/2000/svg" xmlns:xlink="http://www.w3.org/1999/xlink" x="0px" y="0px"
	 viewBox="0 0 605.7 364.2" style="enable-background:new 0 0 605.7 364.2;" xml:space="preserve">
<style type="text/css">
	.st0{fill:#F5F5F5;}
	.st1{fill:#E1E1E1;}
	.st2{fill:none;stroke:#FFFFFF;stroke-miterlimit:10;}
	.st3{fill:#1A2E35;}
	.st4{fill:#008075;}
	.st5{fill:#375A64;}
	.st6{fill:#C78976;}
	.st7{fill:#B66955;}
	.st8{opacity:0.3;}
	.st9{fill:#FAFAFA;}
	.st10{opacity:0.5;}
	.st11{fill:#FFFFFF;}
</style>
<g>
	<g>
		
			<rect x="120.75" y="98.33" transform="matrix(0.8312 -0.556 0.556 0.8312 -68.4271 125.9981)" class="st0" width="105.08" height="154.72"/>
	</g>
	<g>
		<g>
			<polygon class="st1" points="214.85,204.69 213.86,210.82 170.44,204.57 171.43,198.43 			"/>
		</g>
		<g>
			<polygon class="st1" points="192.98,182.8 199.21,183.7 192.31,226.45 186.08,225.55 			"/>
		</g>
	</g>
	<g>
		<g>
			<path class="st2" d="M180.64,131"/>
		</g>
	</g>
	<g>
		<g>
			<path class="st1" d="M152.99,128.47c0.06,0.09-8.69,6.06-19.55,13.32c-10.86,7.26-19.71,13.08-19.77,12.98
				c-0.06-0.09,8.69-6.06,19.55-13.32C144.08,134.19,152.93,128.38,152.99,128.47z"/>
		</g>
	</g>
	<g>
		<g>
			<path class="st1" d="M185.11,120.41c0.06,0.09-14.49,9.94-32.51,21.99c-18.02,12.05-32.67,21.74-32.73,21.65
				c-0.06-0.09,14.49-9.94,32.51-21.99C170.39,130.01,185.05,120.31,185.11,120.41z"/>
		</g>
	</g>
	<g>
		<g>
			<path class="st1" d="M191.55,130.03c0.06,0.09-14.49,9.94-32.51,21.99c-18.02,12.05-32.67,21.74-32.73,21.65
				c-0.06-0.09,14.49-9.94,32.51-21.99C176.83,139.63,191.49,129.94,191.55,130.03z"/>
		</g>
	</g>
	<g>
		<g>
			<path class="st1" d="M197.99,139.66c0.06,0.09-14.49,9.94-32.51,21.99c-18.02,12.05-32.67,21.74-32.73,21.65
				c-0.06-0.09,14.49-9.94,32.51-21.99C183.27,149.26,197.93,139.57,197.99,139.66z"/>
		</g>
	</g>
	<g>
		<g>
			<path class="st1" d="M204.43,149.28c0.06,0.09-14.49,9.94-32.51,21.99c-18.02,12.05-32.67,21.74-32.73,21.65
				c-0.06-0.09,14.49-9.94,32.51-21.99C189.71,158.89,204.36,149.19,204.43,149.28z"/>
		</g>
	</g>
</g>
<g>
	<g>
		
			<rect x="421.32" y="181.93" transform="matrix(0.8312 -0.556 0.556 0.8312 -58.7052 300.4453)" class="st0" width="88.25" height="129.94"/>
	</g>
	<g>
		<g>
			<polygon class="st1" points="500.35,271.25 499.52,276.41 463.05,271.15 463.89,266 			"/>
		</g>
		<g>
			<polygon class="st1" points="481.99,252.88 487.22,253.63 481.42,289.53 476.18,288.78 			"/>
		</g>
	</g>
	<g>
		<g>
			<path class="st2" d="M471.62,209.37"/>
		</g>
	</g>
	<g>
		<g>
			<path class="st1" d="M448.4,207.25c0.06,0.09-7.28,5.11-16.4,11.21c-9.12,6.1-16.56,10.97-16.63,10.88
				c-0.06-0.09,7.28-5.11,16.4-11.21C440.89,212.02,448.34,207.15,448.4,207.25z"/>
		</g>
	</g>
	<g>
		<g>
			<path class="st1" d="M475.37,200.47c0.06,0.09-12.15,8.37-27.28,18.49c-15.13,10.12-27.45,18.25-27.51,18.16
				c-0.06-0.09,12.15-8.37,27.28-18.49C463,208.51,475.31,200.38,475.37,200.47z"/>
		</g>
	</g>
	<g>
		<g>
			<path class="st1" d="M480.78,208.56c0.06,0.09-12.15,8.37-27.28,18.49c-15.13,10.12-27.45,18.25-27.51,18.16
				c-0.06-0.09,12.15-8.37,27.28-18.49C468.4,216.59,480.72,208.47,480.78,208.56z"/>
		</g>
	</g>
	<g>
		<g>
			<path class="st1" d="M486.19,216.64c0.06,0.09-12.15,8.37-27.28,18.49c-15.13,10.12-27.45,18.25-27.51,18.16
				c-0.06-0.09,12.15-8.37,27.28-18.49C473.81,224.68,486.13,216.55,486.19,216.64z"/>
		</g>
	</g>
	<g>
		<g>
			<path class="st1" d="M491.6,224.73c0.06,0.09-12.15,8.37-27.28,18.49c-15.13,10.12-27.45,18.25-27.51,18.16
				c-0.06-0.09,12.15-8.37,27.28-18.49C479.22,232.76,491.53,224.63,491.6,224.73z"/>
		</g>
	</g>
</g>
<g>
	<g>
		
			<rect x="233.05" y="57.59" transform="matrix(0.8818 0.4716 -0.4716 0.8818 91.5821 -116.6037)" class="st0" width="90.76" height="133.64"/>
	</g>
	<g>
		<g>
			<polygon class="st1" points="273.23,167.87 268.15,169.61 255.26,133.98 260.34,132.24 			"/>
		</g>
		<g>
			<polygon class="st1" points="281.02,142.31 282.87,147.43 247.48,159.54 245.63,154.43 			"/>
		</g>
	</g>
	<g>
		<g>
			<path class="st2" d="M315.47,111.84"/>
		</g>
	</g>
	<g>
		<g>
			<path class="st1" d="M306.16,89.74c-0.06,0.12-8.18-4.1-18.13-9.42c-9.95-5.32-17.97-9.73-17.9-9.85
				c0.06-0.12,8.18,4.1,18.13,9.42C298.21,85.22,306.22,89.63,306.16,89.74z"/>
		</g>
	</g>
	<g>
		<g>
			<path class="st1" d="M325.36,110.94c-0.06,0.12-13.5-6.95-30-15.77c-16.51-8.83-29.84-16.08-29.78-16.2
				c0.06-0.12,13.49,6.94,30.01,15.77C312.09,103.57,325.43,110.82,325.36,110.94z"/>
		</g>
	</g>
	<g>
		<g>
			<path class="st1" d="M320.65,119.76c-0.06,0.12-13.5-6.95-30-15.77c-16.51-8.83-29.84-16.08-29.78-16.2
				c0.06-0.12,13.49,6.94,30.01,15.77C307.38,112.39,320.71,119.65,320.65,119.76z"/>
		</g>
	</g>
	<g>
		<g>
			<path class="st1" d="M315.93,128.58c-0.06,0.12-13.5-6.95-30-15.77c-16.51-8.83-29.84-16.08-29.78-16.2
				c0.06-0.12,13.49,6.94,30.01,15.77C302.66,121.21,315.99,128.47,315.93,128.58z"/>
		</g>
	</g>
	<g>
		<g>
			<path class="st1" d="M311.21,137.4c-0.06,0.12-13.5-6.95-30-15.77c-16.51-8.83-29.84-16.08-29.78-16.2
				c0.06-0.12,13.49,6.94,30.01,15.77C297.94,130.03,311.27,137.29,311.21,137.4z"/>
		</g>
	</g>
</g>
<g>
	<g>
		<path class="st3" d="M519.39,329.36c0,0.11-100.61,0.2-224.69,0.2c-124.12,0-224.71-0.09-224.71-0.2c0-0.11,100.59-0.2,224.71-0.2
			C418.79,329.16,519.39,329.25,519.39,329.36z"/>
	</g>
</g>
<g>
	<g>
		<path class="st4" d="M94.87,280.61c2.63,0.09,5.1,1.52,6.84,3.5c1.74,1.98,2.8,4.47,3.48,7.01c1.32,4.92,0.51,10.73-0.9,15.63
			c-5.33-1.9-8.61-7.59-10.1-10.57C91.85,291.46,90.47,281.5,94.87,280.61"/>
	</g>
	<g>
		<path class="st4" d="M111.96,312.72c-1.68-2.41-1.72-5.77-0.39-8.4c1.33-2.62,3.88-4.52,6.69-5.38c1.3-0.4,2.81-0.57,3.94,0.19
			c1.06,0.71,1.51,2.09,1.38,3.36c-0.14,1.26-0.78,2.42-1.53,3.44C119.46,309.44,116.31,312.36,111.96,312.72"/>
	</g>
	<g>
		<g>
			<path class="st3" d="M112.55,329.17c-0.03,0-0.11-0.36-0.24-1.02c-0.14-0.73-0.33-1.67-0.55-2.81c-0.42-2.36-1.09-5.71-0.58-9.42
				c0.48-3.69,1.95-6.85,3.5-8.73c0.76-0.95,1.48-1.63,2.02-2.04c0.26-0.22,0.49-0.35,0.63-0.46c0.15-0.1,0.23-0.14,0.24-0.13
				c0.06,0.07-1.25,0.87-2.69,2.79c-1.46,1.89-2.86,4.99-3.34,8.62c-0.5,3.63,0.12,6.96,0.47,9.33c0.19,1.19,0.34,2.16,0.43,2.83
				C112.54,328.79,112.57,329.17,112.55,329.17z"/>
		</g>
	</g>
	<g>
		<g>
			<path class="st3" d="M96.59,288.1c0.01-0.01,0.09,0.13,0.21,0.4c0.14,0.31,0.32,0.7,0.55,1.19c0.47,1.03,1.13,2.54,1.94,4.4
				c1.61,3.73,3.75,8.91,5.99,14.68c2.24,5.78,4.15,11.05,5.48,14.89c0.66,1.92,1.19,3.47,1.54,4.55c0.16,0.51,0.29,0.92,0.39,1.25
				c0.09,0.29,0.13,0.44,0.11,0.44s-0.08-0.14-0.18-0.42c-0.12-0.32-0.27-0.72-0.46-1.22c-0.4-1.11-0.96-2.64-1.65-4.51
				c-1.39-3.81-3.34-9.07-5.57-14.84c-2.24-5.77-4.34-10.96-5.89-14.72c-0.76-1.84-1.38-3.35-1.83-4.44c-0.2-0.5-0.36-0.9-0.49-1.21
				C96.63,288.26,96.58,288.11,96.59,288.1z"/>
		</g>
	</g>
	<g>
		<path class="st4" d="M106.22,318.29c-3.14-5.35-9.01-8.99-15.2-9.44c-1.58-0.11-3.47,0.15-4.17,1.57
			c-0.7,1.42,0.24,3.09,1.31,4.26c4.47,4.84,12.02,6.52,18.12,4.04"/>
	</g>
	<g>
		<g>
			<path class="st3" d="M93.43,313.06c0-0.03,0.35-0.01,0.99,0.04c0.32,0.02,0.71,0.05,1.15,0.13c0.44,0.08,0.96,0.13,1.51,0.28
				c0.55,0.14,1.16,0.27,1.8,0.5c0.64,0.19,1.31,0.47,2,0.76c1.37,0.62,2.83,1.44,4.22,2.5c1.38,1.07,2.54,2.27,3.49,3.45
				c0.45,0.6,0.89,1.17,1.23,1.76c0.37,0.56,0.65,1.12,0.91,1.63c0.28,0.5,0.44,0.99,0.63,1.4c0.18,0.41,0.3,0.79,0.39,1.09
				c0.19,0.61,0.28,0.95,0.26,0.95c-0.08,0.03-0.46-1.33-1.51-3.33c-0.27-0.49-0.56-1.04-0.94-1.58c-0.34-0.57-0.78-1.12-1.24-1.71
				c-0.94-1.14-2.09-2.31-3.45-3.37c-1.36-1.04-2.79-1.85-4.13-2.48c-0.68-0.3-1.33-0.58-1.96-0.78c-0.62-0.24-1.22-0.38-1.76-0.54
				C94.83,313.22,93.42,313.14,93.43,313.06z"/>
		</g>
	</g>
</g>
<g>
	<g>
		<g>
			<path class="st3" d="M446.77,69.1c-2.29,0.53-3.4,3.16-3.62,5.5c-0.22,2.34,0.08,4.81-0.9,6.94c-1.11,2.4-3.75,4.17-3.83,6.81
				c-0.05,1.61,0.9,3.13,0.86,4.74c-0.08,2.65-2.77,4.65-2.92,7.29c-0.1,1.9,1.17,3.73,0.86,5.61c-0.24,1.46-1.38,2.62-1.86,4.02
				c-0.96,2.8,0.96,5.88,3.46,7.45c2.79,1.75,6.36,2.21,9.5,1.2c3.14-1,5.79-3.44,7.04-6.49c1.38-3.36,1.08-7.15,0.78-10.77
				c-0.94-11.29-1.64-22.6-2.09-33.92"/>
		</g>
		<g>
			<g>
				<path class="st5" d="M440.12,108.95c-0.05-0.04,0.63-0.25,1.05-1.24c0.2-0.49,0.31-1.15,0.27-1.9
					c-0.03-0.76-0.29-1.59-0.57-2.52c-0.26-0.93-0.6-2-0.41-3.19c0.2-1.21,1.06-2.21,1.85-3.19c0.4-0.5,0.8-1.01,1.05-1.6
					c0.27-0.58,0.32-1.24,0.12-1.87c-0.4-1.27-1.65-2.21-2.22-3.68c-0.28-0.74-0.29-1.54-0.13-2.27c0.15-0.73,0.45-1.4,0.75-2.04
					c0.61-1.27,1.28-2.43,1.55-3.66c0.55-2.47,0.29-4.83,0.66-6.76c0.34-1.94,1.16-3.4,1.97-4.15c0.4-0.39,0.78-0.59,1.03-0.73
					c0.27-0.11,0.41-0.17,0.41-0.15c0.03,0.04-0.58,0.23-1.33,1c-0.75,0.76-1.5,2.19-1.8,4.08c-0.15,0.94-0.18,2.01-0.22,3.15
					c-0.04,1.14-0.08,2.38-0.37,3.65c-0.27,1.3-0.96,2.5-1.55,3.75c-0.59,1.22-1.12,2.66-0.61,4c0.49,1.33,1.75,2.27,2.22,3.7
					c0.23,0.71,0.16,1.5-0.15,2.14c-0.29,0.65-0.71,1.18-1.12,1.68c-0.81,0.98-1.63,1.92-1.81,3.01c-0.19,1.08,0.11,2.13,0.35,3.05
					c0.26,0.93,0.51,1.8,0.52,2.59c0.02,0.78-0.11,1.47-0.35,1.97c-0.23,0.51-0.56,0.82-0.8,0.98
					C440.27,108.91,440.12,108.95,440.12,108.95z"/>
			</g>
		</g>
	</g>
	<path class="st6" d="M433.99,127.4l-7.03,20.26l-29.3,1.57l-4.89,10.87l30.59,3.09c6.1,2.52,13.07-0.57,15.3-6.78l8.16-22.79
		L433.99,127.4z"/>
	<g>
		<g>
			<g>
				<path class="st6" d="M494.6,318.36c0,0-21.47-68.2-21.93-70.42c-0.41-2,7.79-51.08,8.83-63.78l-29.01,1.08c0,0,0,0.08,0,0.21
					l-12.33,0.68l11.05,139.48h13.35l-1.32-46.28c8.23,22.1,20.03,44.63,20.03,44.63L494.6,318.36z"/>
			</g>
			<g>
				<path class="st7" d="M463.77,295.93c0.01-0.42-0.16-15.5-0.16-15.5c-0.17,0.9-5.12-13.09-5-13.95
					C458.67,266.04,463.77,295.93,463.77,295.93z"/>
			</g>
		</g>
		<g>
			<path class="st7" d="M458.04,259.86c-0.03,0-0.06,0.3-0.09,0.85c-0.03,0.54-0.04,1.34,0.02,2.31c0.02,0.49,0.07,1.02,0.13,1.59
				c0.07,0.57,0.15,1.18,0.28,1.82c0.24,1.27,0.62,2.65,1.09,4.06c0.97,2.82,2.04,5.29,2.8,7.08c0.36,0.82,0.67,1.52,0.93,2.11
				c0.23,0.49,0.37,0.76,0.4,0.75c0.03-0.01-0.06-0.3-0.24-0.82c-0.18-0.51-0.45-1.25-0.8-2.16c-0.69-1.82-1.71-4.31-2.67-7.1
				c-0.47-1.4-0.85-2.75-1.11-4c-0.14-0.62-0.23-1.22-0.32-1.78c-0.08-0.56-0.15-1.09-0.18-1.57c-0.09-0.96-0.13-1.75-0.16-2.29
				C458.1,260.16,458.07,259.86,458.04,259.86z"/>
		</g>
	</g>
	<g>
		<g>
			<g>
				<g>
					<path class="st5" d="M450.94,326.31l-0.01-1.25l13.68-0.6l0.04,5.17l-0.84,0.06c-3.75,0.22-19.1,0.85-21.62,0.1
						C439.39,328.95,450.94,326.31,450.94,326.31z"/>
				</g>
			</g>
			<g>
				<g>
					<path class="st3" d="M464.84,329.32c0,0.01-0.08,0.01-0.23,0.03c-0.2,0.01-0.42,0.03-0.67,0.04c-0.67,0.03-1.5,0.07-2.47,0.12
						c-2.09,0.08-4.98,0.16-8.16,0.17c-3.19,0.01-6.08-0.04-8.17-0.1c-0.98-0.04-1.8-0.07-2.47-0.09c-0.25-0.01-0.47-0.03-0.67-0.04
						c-0.15-0.01-0.23-0.02-0.23-0.02c0-0.01,0.08-0.01,0.23-0.01c0.2,0,0.42,0,0.67,0.01c0.67,0.01,1.5,0.03,2.47,0.04
						c2.09,0.03,4.98,0.07,8.16,0.05c3.19-0.01,6.07-0.07,8.16-0.12c0.98-0.02,1.8-0.05,2.47-0.06c0.25,0,0.47-0.01,0.67-0.01
						C464.76,329.31,464.84,329.31,464.84,329.32z"/>
				</g>
			</g>
			<g>
				<g>
					<path class="st3" d="M446.51,329.76c-0.05,0.01-0.09-0.58-0.47-1.18c-0.36-0.6-0.87-0.9-0.85-0.94
						c0.01-0.04,0.59,0.21,0.99,0.86C446.59,329.13,446.55,329.77,446.51,329.76z"/>
				</g>
			</g>
			<g>
				<g>
					<path class="st3" d="M450.52,327.71c-0.04,0.02-0.23-0.21-0.43-0.52c-0.2-0.31-0.33-0.58-0.29-0.61
						c0.04-0.02,0.23,0.21,0.43,0.52C450.43,327.41,450.56,327.69,450.52,327.71z"/>
				</g>
			</g>
			<g>
				<g>
					<path class="st3" d="M451.62,327.12c-0.03,0.03-0.25-0.11-0.48-0.32c-0.24-0.21-0.4-0.41-0.37-0.44
						c0.03-0.03,0.25,0.11,0.48,0.32C451.48,326.89,451.65,327.09,451.62,327.12z"/>
				</g>
			</g>
			<g>
				<g>
					<path class="st3" d="M452.31,325.84c0,0.05-0.32,0.09-0.71,0.09c-0.39,0.01-0.71-0.03-0.71-0.07c0-0.05,0.32-0.09,0.71-0.09
						C451.99,325.76,452.31,325.79,452.31,325.84z"/>
				</g>
			</g>
			<g>
				<g>
					<path class="st3" d="M452.55,324.93c0.02,0.04-0.33,0.2-0.79,0.23c-0.46,0.04-0.83-0.06-0.82-0.11
						c0.01-0.05,0.37-0.02,0.81-0.06C452.18,324.97,452.53,324.88,452.55,324.93z"/>
				</g>
			</g>
			<g>
				<g>
					<path class="st3" d="M450.05,326.52c0,0.02-0.33,0.06-0.87,0c-0.27-0.03-0.59-0.09-0.93-0.2c-0.17-0.06-0.35-0.1-0.53-0.22
						c-0.09-0.06-0.18-0.14-0.22-0.27c-0.04-0.13,0.03-0.28,0.13-0.35c0.83-0.44,1.67,0.03,1.98,0.46c0.17,0.22,0.25,0.43,0.29,0.58
						c0.04,0.15,0.03,0.23,0.02,0.24c-0.03,0.01-0.06-0.34-0.4-0.74c-0.17-0.2-0.42-0.39-0.75-0.48c-0.31-0.09-0.75-0.11-1.04,0.07
						c-0.14,0.1-0.08,0.27,0.07,0.36c0.14,0.09,0.33,0.15,0.49,0.21c0.33,0.11,0.64,0.19,0.9,0.23
						C449.72,326.5,450.05,326.5,450.05,326.52z"/>
				</g>
			</g>
			<g>
				<g>
					<path class="st3" d="M449.83,326.57c-0.01,0.01-0.14-0.21-0.1-0.61c0.02-0.19,0.09-0.42,0.24-0.64
						c0.15-0.19,0.35-0.46,0.73-0.45c0.2,0.03,0.3,0.26,0.27,0.4c-0.02,0.15-0.08,0.28-0.15,0.39c-0.13,0.22-0.28,0.4-0.41,0.53
						c-0.27,0.27-0.49,0.37-0.5,0.36c-0.02-0.02,0.17-0.16,0.41-0.44c0.12-0.14,0.25-0.31,0.36-0.53c0.12-0.19,0.2-0.52-0.02-0.56
						c-0.22-0.02-0.44,0.2-0.57,0.37c-0.14,0.19-0.21,0.39-0.25,0.57C449.77,326.34,449.86,326.56,449.83,326.57z"/>
				</g>
			</g>
			<g>
				<g>
					<path class="st3" d="M464.55,325.6c0,0.03-0.39-0.04-1,0.04c-0.61,0.07-1.46,0.32-2.19,0.91c-0.73,0.59-1.16,1.36-1.36,1.94
						c-0.21,0.58-0.22,0.98-0.26,0.97c-0.01,0-0.02-0.1,0-0.27c0.01-0.18,0.05-0.43,0.15-0.73c0.18-0.6,0.61-1.42,1.37-2.03
						c0.77-0.61,1.65-0.86,2.28-0.9c0.32-0.02,0.57-0.01,0.75,0.02C464.46,325.56,464.55,325.59,464.55,325.6z"/>
				</g>
			</g>
			<g>
				<g>
					<path class="st3" d="M458,328.24c0.01,0.04-0.88,0.18-1.99,0.19c-1.11,0.01-1.99-0.12-1.99-0.17c0-0.05,0.89,0.01,1.99,0
						C457.11,328.26,458,328.19,458,328.24z"/>
				</g>
			</g>
			<g>
				<g>
					<path class="st3" d="M460.67,328.21c0.03,0.03-0.07,0.19-0.16,0.39c-0.09,0.2-0.14,0.39-0.19,0.38c-0.04,0-0.07-0.21,0.04-0.45
						C460.46,328.3,460.64,328.17,460.67,328.21z"/>
				</g>
			</g>
			<g>
				<g>
					<path class="st3" d="M461.67,326.95c0.03,0.03-0.05,0.17-0.19,0.32c-0.14,0.14-0.28,0.23-0.31,0.2
						c-0.03-0.03,0.05-0.17,0.2-0.32C461.5,327.01,461.64,326.92,461.67,326.95z"/>
				</g>
			</g>
			<g>
				<g>
					<path class="st3" d="M463.1,326.38c-0.01,0.05-0.19,0.05-0.39,0.12c-0.2,0.07-0.34,0.18-0.38,0.15
						c-0.04-0.02,0.08-0.22,0.33-0.3C462.91,326.25,463.12,326.33,463.1,326.38z"/>
				</g>
			</g>
			<g>
				<g>
					<path class="st3" d="M464.13,326.1c0.02,0.04-0.06,0.11-0.17,0.16c-0.11,0.04-0.22,0.05-0.23,0c-0.02-0.04,0.06-0.11,0.17-0.16
						C464.01,326.06,464.11,326.06,464.13,326.1z"/>
				</g>
			</g>
		</g>
	</g>
	<g>
		<g>
			<g>
				<g>
					<path class="st5" d="M482.99,325.1l-0.52-1.14l12.23-6.15l2.15,4.7l-0.75,0.4c-3.33,1.74-17.08,8.6-19.68,8.95
						C473.53,332.24,482.99,325.1,482.99,325.1z"/>
				</g>
			</g>
			<g>
				<g>
					<path class="st3" d="M496.9,322.16c0,0.01-0.07,0.05-0.2,0.12c-0.18,0.09-0.37,0.2-0.6,0.31c-0.6,0.3-1.34,0.68-2.21,1.12
						c-1.87,0.93-4.47,2.18-7.38,3.5c-2.9,1.32-5.56,2.46-7.49,3.25c-0.9,0.37-1.67,0.68-2.29,0.93c-0.23,0.09-0.44,0.17-0.63,0.24
						c-0.14,0.05-0.22,0.08-0.22,0.07c0-0.01,0.07-0.04,0.21-0.1c0.19-0.08,0.39-0.17,0.62-0.27c0.62-0.27,1.38-0.59,2.27-0.98
						c1.92-0.82,4.57-1.98,7.47-3.3c2.9-1.32,5.51-2.55,7.39-3.46c0.88-0.42,1.62-0.78,2.23-1.07c0.23-0.11,0.43-0.2,0.61-0.29
						C496.82,322.18,496.9,322.15,496.9,322.16z"/>
				</g>
			</g>
			<g>
				<g>
					<path class="st3" d="M480.36,330.07c-0.04,0.03-0.32-0.5-0.91-0.88c-0.58-0.4-1.17-0.46-1.16-0.51
						c-0.01-0.04,0.63-0.05,1.25,0.38C480.17,329.46,480.4,330.06,480.36,330.07z"/>
				</g>
			</g>
			<g>
				<g>
					<path class="st3" d="M483.17,326.55c-0.02,0.04-0.3-0.1-0.61-0.3c-0.31-0.2-0.54-0.4-0.52-0.44c0.02-0.04,0.3,0.1,0.61,0.3
						C482.97,326.32,483.2,326.52,483.17,326.55z"/>
				</g>
			</g>
			<g>
				<g>
					<path class="st3" d="M483.94,325.57c-0.01,0.04-0.27,0-0.57-0.09c-0.3-0.1-0.53-0.21-0.52-0.25c0.01-0.04,0.27,0,0.57,0.09
						C483.72,325.41,483.95,325.52,483.94,325.57z"/>
				</g>
			</g>
			<g>
				<g>
					<path class="st3" d="M484.04,324.11c0.02,0.04-0.25,0.21-0.61,0.38c-0.36,0.17-0.66,0.27-0.68,0.23
						c-0.02-0.04,0.25-0.21,0.61-0.38C483.72,324.17,484.02,324.07,484.04,324.11z"/>
				</g>
			</g>
			<g>
				<g>
					<path class="st3" d="M483.88,323.19c0.03,0.03-0.22,0.32-0.63,0.54c-0.41,0.22-0.78,0.28-0.79,0.24
						c-0.01-0.05,0.33-0.17,0.71-0.38C483.56,323.37,483.85,323.15,483.88,323.19z"/>
				</g>
			</g>
			<g>
				<g>
					<path class="st3" d="M482.26,325.66c0.01,0.02-0.28,0.19-0.8,0.36c-0.26,0.08-0.58,0.16-0.93,0.2
						c-0.18,0.02-0.36,0.05-0.58,0.02c-0.1-0.02-0.22-0.05-0.31-0.16c-0.09-0.1-0.08-0.27-0.02-0.37c0.58-0.74,1.54-0.66,2-0.39
						c0.25,0.13,0.41,0.29,0.5,0.41c0.09,0.12,0.13,0.2,0.12,0.21c-0.02,0.02-0.2-0.29-0.67-0.51c-0.23-0.11-0.54-0.18-0.88-0.13
						c-0.32,0.04-0.73,0.2-0.92,0.49c-0.08,0.15,0.03,0.28,0.21,0.3c0.17,0.03,0.36,0,0.53-0.01c0.35-0.03,0.66-0.09,0.92-0.16
						C481.95,325.78,482.25,325.64,482.26,325.66z"/>
				</g>
			</g>
			<g>
				<g>
					<path class="st3" d="M482.07,325.8c-0.01,0.01-0.22-0.14-0.34-0.51c-0.06-0.18-0.09-0.42-0.05-0.68
						c0.06-0.24,0.13-0.57,0.48-0.71c0.2-0.06,0.65,0.33,0.68,0.48c0.05,0.15-0.23,0.07-0.24,0.19c-0.03,0.25-0.09,0.47-0.16,0.65
						c-0.14,0.36-0.29,0.54-0.31,0.53c-0.02-0.01,0.09-0.21,0.2-0.57c0.05-0.18,0.1-0.39,0.12-0.63c0.03-0.22-0.03-0.55-0.25-0.5
						c-0.21,0.07-0.32,0.36-0.37,0.58c-0.05,0.23-0.03,0.45,0.01,0.62C481.93,325.61,482.1,325.78,482.07,325.8z"/>
				</g>
			</g>
			<g>
				<g>
					<path class="st3" d="M495.11,318.88c0.01,0.03-0.37,0.13-0.9,0.45c-0.53,0.31-1.2,0.89-1.62,1.73
						c-0.43,0.84-0.5,1.72-0.45,2.33c0.05,0.62,0.2,0.98,0.17,0.99c-0.01,0-0.05-0.08-0.11-0.25c-0.06-0.17-0.13-0.41-0.17-0.73
						c-0.09-0.62-0.03-1.54,0.42-2.42c0.45-0.87,1.16-1.46,1.71-1.75c0.28-0.15,0.52-0.24,0.69-0.29
						C495.01,318.89,495.1,318.87,495.11,318.88z"/>
				</g>
			</g>
			<g>
				<g>
					<path class="st3" d="M490.21,323.97c0.02,0.04-0.73,0.53-1.74,0.99c-1.01,0.46-1.87,0.7-1.88,0.66
						c-0.02-0.05,0.82-0.36,1.81-0.81C489.41,324.35,490.19,323.93,490.21,323.97z"/>
				</g>
			</g>
			<g>
				<g>
					<path class="st3" d="M492.63,322.85c0.04,0.02,0.01,0.2,0.01,0.42c0,0.22,0.03,0.41-0.01,0.42c-0.04,0.02-0.15-0.17-0.15-0.42
						C492.48,323.02,492.59,322.83,492.63,322.85z"/>
				</g>
			</g>
			<g>
				<g>
					<path class="st3" d="M493.03,321.3c0.04,0.02,0.02,0.18-0.05,0.37c-0.07,0.19-0.16,0.33-0.2,0.31
						c-0.04-0.02-0.02-0.18,0.05-0.37C492.9,321.42,492.99,321.28,493.03,321.3z"/>
				</g>
			</g>
			<g>
				<g>
					<path class="st3" d="M494.11,320.18c0.01,0.05-0.15,0.12-0.31,0.27c-0.16,0.14-0.24,0.3-0.29,0.29
						c-0.04-0.01-0.02-0.23,0.17-0.41C493.88,320.15,494.1,320.14,494.11,320.18z"/>
				</g>
			</g>
			<g>
				<g>
					<path class="st3" d="M494.93,319.51c0.03,0.03-0.01,0.13-0.09,0.21c-0.08,0.09-0.18,0.13-0.21,0.1
						c-0.03-0.03,0.01-0.13,0.09-0.21C494.8,319.53,494.89,319.48,494.93,319.51z"/>
				</g>
			</g>
		</g>
	</g>
	<g>
		<g>
			<g>
				<g>
					<g>
						<g>
							<g>
								<g>
									<path class="st4" d="M479.62,161.08l-2.28-27.79l11.7,0.21c0,0,0.54-4.1-1.18-13.08c-1.06-5.51-4.73-8.89-8.84-10.9l0-0.07
										l-0.36-0.09c-5.24-2.45-10.71-2.8-10.71-2.8l-14.36,0.17c0,0-10.97-1.37-17.04,6.45c-2.34,3.01-9.58,23.63-9.58,23.63
										l17.24,8.3l-1.64-11.43c0,0,0.33,8.29,1.38,10.92c0.59,1.46,2.3,6.01,2.3,6.01l-0.22,13.71L479.62,161.08z"/>
								</g>
							</g>
						</g>
					</g>
				</g>
				<g>
					<polygon class="st4" points="471.69,129.26 469.56,138.34 489.67,138.34 488.35,123.11 					"/>
				</g>
				<g>
					<g>
						<path class="st3" d="M489.67,138.34c0-0.06-1.01-0.17-2.66-0.26c-1.65-0.1-3.93-0.18-6.45-0.17c-2.52,0.01-4.8,0.12-6.45,0.25
							c-1.65,0.13-2.66,0.27-2.65,0.33c0,0.06,1.03,0.04,2.67-0.01c1.65-0.05,3.92-0.11,6.43-0.12c2.51-0.01,4.79,0.02,6.43,0.04
							C488.65,138.4,489.67,138.4,489.67,138.34z"/>
					</g>
				</g>
				<g>
					<g>
						<path class="st3" d="M470.83,123.04c-0.06,0-0.08,0.88-0.07,2.31c0.02,1.42,0.07,3.39,0.15,5.56
							c0.08,2.17,0.19,4.14,0.28,5.56c0.1,1.42,0.18,2.3,0.25,2.3c0.06,0,0.08-0.88,0.07-2.31c-0.02-1.42-0.07-3.39-0.15-5.56
							c-0.08-2.17-0.19-4.14-0.28-5.56C470.98,123.92,470.89,123.04,470.83,123.04z"/>
					</g>
				</g>
				<g class="st8">
					<path d="M452.53,130.9c0,0,4.47,33.13,17.03,32.26c0,0,5.66-0.07,7.48-3.83v-1.48L452.53,130.9z"/>
				</g>
			</g>
		</g>
		<g class="st8">
			<polygon points="470.83,124.99 468.42,141.24 469.98,144.09 472.54,138.51 471.46,138.49 			"/>
		</g>
		<g>
			<g>
				<path class="st3" d="M446.24,150.59c-0.03,0.01-0.15-0.27-0.34-0.78c-0.2-0.51-0.45-1.25-0.76-2.18
					c-0.6-1.85-1.34-4.44-1.92-7.35c-0.58-2.92-0.86-5.6-0.95-7.54c-0.05-0.97-0.06-1.76-0.05-2.3c0.01-0.54,0.03-0.84,0.06-0.84
					c0.06,0,0.11,1.2,0.27,3.13c0.16,1.93,0.49,4.59,1.06,7.48c0.58,2.9,1.27,5.48,1.8,7.35c0.25,0.87,0.46,1.6,0.63,2.21
					C446.2,150.29,446.27,150.58,446.24,150.59z"/>
			</g>
		</g>
		<g>
			<g>
				<path class="st3" d="M451.32,160.11c-0.11,0.03-0.42-0.68-0.69-1.6c-0.28-0.91-0.41-1.68-0.31-1.71
					c0.11-0.03,0.42,0.68,0.69,1.6C451.29,159.31,451.43,160.08,451.32,160.11z"/>
			</g>
		</g>
		<g>
			<g>
				<path class="st3" d="M453.06,159.98c-0.1,0.03-0.44-1.05-0.46-2.42c-0.02-1.38,0.28-2.46,0.39-2.43
					c0.12,0.02-0.01,1.1,0.02,2.43C453.02,158.88,453.17,159.96,453.06,159.98z"/>
			</g>
		</g>
		<g>
			<g>
				<path class="st3" d="M444.55,145.48c-0.05,0.1-4.06-1.8-8.96-4.25c-4.9-2.45-8.83-4.51-8.78-4.61c0.05-0.1,4.06,1.8,8.96,4.25
					C440.67,143.31,444.6,145.38,444.55,145.48z"/>
			</g>
		</g>
	</g>
	<g>
		<g>
			<g>
				<g>
					<g>
						<g>
							<g>
								<g>
									<g>
										<path class="st6" d="M451.62,109.41c0.09-3.94,0.11-8.09,0.11-8.09s-5.05-0.97-5.93-7.62
											c-0.84-6.34,1.51-21.21,1.51-21.21l0,0c7.38-2.79,15.04-0.26,20.1,5.72l0,0l-1.25,31.97c-0.15,3.71-3.45,6.54-7.43,6.36h0
											C454.71,116.35,451.53,113.16,451.62,109.41z"/>
									</g>
								</g>
							</g>
							<g>
								<g>
									<g>
										<g>
											<path class="st3" d="M446.92,84.38c-0.03,0.45,0.33,0.84,0.8,0.88c0.47,0.04,0.87-0.29,0.89-0.74
												c0.03-0.45-0.33-0.84-0.8-0.88C447.35,83.6,446.95,83.93,446.92,84.38z"/>
										</g>
									</g>
								</g>
								<g>
									<g>
										<g>
											<g>
												<path class="st3" d="M446.61,83.26c0.1,0.11,0.76-0.35,1.67-0.32c0.91,0.01,1.57,0.5,1.67,0.39
													c0.05-0.05-0.05-0.25-0.34-0.47c-0.28-0.22-0.77-0.44-1.34-0.45c-0.57-0.01-1.05,0.19-1.33,0.39
													C446.66,83.01,446.56,83.21,446.61,83.26z"/>
											</g>
										</g>
									</g>
								</g>
							</g>
							<g>
								<g>
									<g>
										<g>
											<path class="st3" d="M456.19,84.95c-0.03,0.45,0.33,0.84,0.8,0.88c0.47,0.04,0.87-0.29,0.89-0.74
												c0.03-0.45-0.33-0.84-0.8-0.88C456.62,84.17,456.22,84.51,456.19,84.95z"/>
										</g>
									</g>
								</g>
								<g>
									<g>
										<g>
											<g>
												<path class="st3" d="M456.13,83.84c0.1,0.11,0.76-0.35,1.67-0.32c0.91,0.01,1.57,0.5,1.67,0.39
													c0.05-0.05-0.05-0.25-0.34-0.47c-0.28-0.22-0.77-0.44-1.34-0.45c-0.57-0.01-1.05,0.19-1.33,0.39
													C456.18,83.59,456.08,83.79,456.13,83.84z"/>
											</g>
										</g>
									</g>
								</g>
							</g>
							<g>
								<g>
									<g>
										<g>
											<path class="st3" d="M452.64,90.53c0.01-0.05-0.56-0.16-1.48-0.31c-0.23-0.03-0.45-0.08-0.49-0.24
												c-0.05-0.17,0.05-0.42,0.17-0.69c0.23-0.56,0.48-1.14,0.74-1.76c1.02-2.5,1.77-4.57,1.67-4.61
												c-0.1-0.04-1.01,1.96-2.04,4.46c-0.25,0.62-0.48,1.21-0.71,1.77c-0.1,0.26-0.25,0.56-0.14,0.91
												c0.06,0.18,0.23,0.31,0.37,0.35c0.15,0.05,0.28,0.06,0.39,0.07C452.06,90.56,452.64,90.58,452.64,90.53z"/>
										</g>
									</g>
								</g>
							</g>
							<g>
								<g>
									<g>
										<path class="st7" d="M451.73,101.32c0,0,4.45,0.4,8.92-2.14c0,0-2.27,4.49-8.88,3.7L451.73,101.32z"/>
									</g>
								</g>
							</g>
						</g>
					</g>
				</g>
			</g>
		</g>
		<g>
			<g>
				<path class="st3" d="M459.05,81.2c-0.19,0.29-0.88,0.16-1.66,0.02c-0.78-0.16-1.47-0.29-1.54-0.63
					c-0.08-0.32,0.73-0.77,1.77-0.57C458.66,80.23,459.24,80.93,459.05,81.2z"/>
			</g>
		</g>
		<g>
			<g>
				<path class="st3" d="M449.97,79.86c-0.07,0.33-0.81,0.45-1.67,0.5c-0.86,0.03-1.61-0.02-1.71-0.34
					c-0.1-0.31,0.62-0.83,1.66-0.87C449.28,79.1,450.04,79.54,449.97,79.86z"/>
			</g>
		</g>
		<g>
			<path class="st7" d="M452.65,92.71c-0.19-0.05-0.41,0.06-0.51,0.23c-0.11,0.21-0.06,0.49,0.12,0.65
				c0.18,0.15,0.47,0.16,0.66,0.01c0.19-0.15,0.25-0.43,0.14-0.64c-0.11-0.21-0.38-0.33-0.6-0.26"/>
		</g>
		<g>
			<g>
				<path class="st3" d="M452.87,92.8c0.04-0.04-0.15-0.26-0.54-0.17c-0.18,0.04-0.43,0.21-0.5,0.49c-0.07,0.27-0.01,0.61,0.27,0.83
					c0.29,0.21,0.64,0.16,0.88,0.01c0.25-0.16,0.32-0.46,0.28-0.65c-0.08-0.41-0.38-0.48-0.39-0.42c-0.03,0.05,0.11,0.19,0.08,0.44
					c-0.01,0.12-0.07,0.23-0.19,0.29c-0.11,0.06-0.29,0.06-0.39-0.02c-0.11-0.08-0.16-0.25-0.14-0.38c0.02-0.13,0.1-0.23,0.21-0.29
					C452.65,92.8,452.84,92.86,452.87,92.8z"/>
			</g>
		</g>
		<g>
			<g>
				<path class="st3" d="M464.35,86.02c-0.79,1.82-2.71,3.23-2.44,5.2c0.17,1.27,0.99,2.46,0.83,3.73c-0.2,1.6-1.86,2.71-2.1,4.3
					c-0.29,1.96,1.61,3.47,2.37,5.3c1.11,2.66-0.31,5.64-0.34,8.52c-0.05,4.41,3.7,8.53,8.09,8.89c1.78,0.15,3.78-0.39,4.7-1.92
					c0.76-1.26,0.61-2.86,1.06-4.26c0.68-2.08,2.66-3.61,3.08-5.76c0.76-3.92-3.98-7.17-3.66-11.15c0.13-1.7,1.18-3.19,1.63-4.83
					c0.59-2.16,0.05-4.59-1.39-6.3c-1.17-1.39-2.87-2.31-3.86-3.83c-1.13-1.72-1.17-3.91-1.59-5.92c-1.04-4.91-4.73-9.18-9.44-10.92
					s-10.29-0.89-14.27,2.17c0,0-1.13,5.13,4.13,5.99c5.27,0.86,7.71-0.13,8.3,1.98c0,0-0.6,2.47,1.58,4.82
					C463.21,84.4,465.26,83.91,464.35,86.02z"/>
			</g>
			<g>
				<g>
					<path class="st5" d="M472.75,121.6c0,0.01-0.17,0-0.48-0.05c-0.31-0.05-0.77-0.15-1.34-0.36c-1.12-0.41-2.72-1.31-4.07-3.02
						c-0.67-0.85-1.31-1.88-1.73-3.08c-0.44-1.2-0.68-2.56-0.71-4c-0.03-1.43,0.17-2.94,0.56-4.44c0.2-0.75,0.45-1.51,0.75-2.25
						c0.29-0.75,0.65-1.47,0.85-2.24c0.22-0.76,0.19-1.54-0.01-2.28c-0.2-0.74-0.55-1.44-0.89-2.13c-0.34-0.69-0.68-1.38-0.91-2.11
						c-0.23-0.73-0.31-1.51-0.16-2.24c0.31-1.47,1.2-2.55,1.73-3.67c0.56-1.1,0.73-2.27,0.7-3.32c-0.09-2.12-1-3.69-1.74-4.59
						c-0.77-0.9-1.35-1.25-1.32-1.29c0,0,0.62,0.29,1.44,1.18c0.79,0.89,1.77,2.48,1.9,4.68c0.05,1.08-0.12,2.31-0.69,3.47
						c-0.54,1.15-1.4,2.25-1.66,3.59c-0.27,1.35,0.37,2.74,1.06,4.1c0.34,0.69,0.7,1.41,0.92,2.2c0.22,0.79,0.25,1.68,0.01,2.49
						c-0.22,0.82-0.59,1.55-0.87,2.28c-0.29,0.73-0.54,1.47-0.74,2.2c-0.39,1.47-0.59,2.94-0.57,4.34c0.01,2.81,0.97,5.26,2.29,6.91
						c1.29,1.69,2.82,2.6,3.91,3.05C472.09,121.49,472.76,121.55,472.75,121.6z"/>
				</g>
			</g>
			<g>
				<g>
					<path class="st5" d="M471.98,82.32c0,0.03-0.41,0.1-1.16,0.17c-0.75,0.06-1.85,0.15-3.21-0.08c-1.32-0.24-2.99-0.89-4.05-2.45
						c-0.52-0.79-0.72-1.74-1.06-2.61c-0.32-0.89-0.93-1.66-1.77-2.19c-1.7-1.08-3.71-1.21-5.46-1.43c-1.76-0.2-3.42-0.57-4.54-1.41
						c-1.13-0.8-1.71-1.85-1.86-2.6c-0.08-0.38-0.08-0.68-0.06-0.88c0.03-0.2,0.05-0.3,0.06-0.3c0.05,0-0.05,0.43,0.15,1.14
						c0.19,0.7,0.77,1.67,1.87,2.4c1.08,0.77,2.66,1.1,4.42,1.28c1.74,0.2,3.81,0.3,5.64,1.46c0.9,0.56,1.6,1.44,1.92,2.39
						c0.35,0.93,0.54,1.84,1.01,2.55c0.95,1.45,2.52,2.11,3.79,2.38c1.3,0.26,2.4,0.22,3.14,0.21
						C471.56,82.31,471.97,82.29,471.98,82.32z"/>
				</g>
			</g>
			<g>
				<g>
					<path class="st5" d="M470.05,75.98c0,0.02-0.31,0.12-0.91,0.13c-0.59,0.02-1.48-0.09-2.46-0.55c-0.49-0.23-0.99-0.56-1.45-1.01
						c-0.47-0.44-0.85-1.01-1.21-1.61c-0.7-1.18-1.38-2.64-2.83-3.25c-1.43-0.61-3-0.48-4.36-0.38c-1.38,0.14-2.67,0.18-3.72-0.03
						c-1.06-0.18-1.86-0.62-2.3-1.03c-0.22-0.2-0.37-0.38-0.46-0.51c-0.09-0.13-0.13-0.2-0.12-0.21c0.03-0.02,0.22,0.25,0.67,0.6
						c0.45,0.35,1.22,0.73,2.24,0.87c1.02,0.16,2.26,0.1,3.64-0.06c1.37-0.11,2.99-0.28,4.56,0.38c0.78,0.33,1.41,0.91,1.86,1.54
						c0.46,0.63,0.79,1.29,1.13,1.89c0.34,0.6,0.7,1.14,1.12,1.56c0.42,0.43,0.88,0.75,1.34,0.99c0.91,0.47,1.76,0.62,2.33,0.65
						C469.72,75.99,470.04,75.95,470.05,75.98z"/>
				</g>
			</g>
			<g>
				<g>
					<path class="st5" d="M475.08,119.92c-0.04-0.02,0.21-0.52,0.5-1.48c0.29-0.96,0.57-2.39,0.52-4.17
						c-0.06-1.77-0.49-3.91-1.66-5.94c-0.57-1.02-1.43-1.93-2.14-3.05c-0.35-0.56-0.65-1.19-0.78-1.88
						c-0.13-0.69-0.05-1.43,0.17-2.1c0.44-1.34,1.22-2.48,1.39-3.71c0.21-1.24-0.42-2.37-1.01-3.37c-0.3-0.51-0.6-1.02-0.83-1.55
						c-0.23-0.53-0.38-1.09-0.44-1.63c-0.12-1.08,0.01-2.08,0.09-2.97c0.22-1.78,0.06-3.24-0.37-4.14
						c-0.42-0.91-0.96-1.18-0.92-1.22c0-0.01,0.04,0.01,0.09,0.04c0.06,0.04,0.15,0.09,0.25,0.18c0.21,0.17,0.49,0.47,0.72,0.93
						c0.49,0.91,0.7,2.44,0.51,4.23c-0.06,0.9-0.17,1.88-0.04,2.9c0.1,1.03,0.64,2.01,1.26,3.02c0.3,0.51,0.62,1.05,0.85,1.65
						c0.23,0.6,0.34,1.29,0.23,1.97c-0.19,1.36-0.99,2.51-1.39,3.78c-0.21,0.63-0.28,1.28-0.16,1.91c0.12,0.62,0.39,1.21,0.72,1.74
						c0.67,1.08,1.54,2,2.13,3.07c1.19,2.11,1.6,4.32,1.62,6.12c0.01,1.82-0.32,3.27-0.65,4.23c-0.17,0.48-0.32,0.84-0.45,1.07
						C475.16,119.8,475.09,119.93,475.08,119.92z"/>
				</g>
			</g>
		</g>
	</g>
	<g>
		<g>
			<path class="st3" d="M443.37,264.96c0,0-5.24-49.69-5.54-68.06s8.26-36.48,8.26-36.48l33.54-1.42c0,0,6.63,18.63,6.75,26.46
				c0.23,15.21-4.04,30.23-3.55,42.29l1.12,37.21"/>
		</g>
		<g>
			<g>
				<path class="st9" d="M485.06,203.86c0.01,0.01-0.18,0.16-0.55,0.41c-0.09,0.07-0.2,0.14-0.31,0.22c-0.1,0.09-0.21,0.2-0.32,0.31
					c-0.24,0.23-0.51,0.48-0.75,0.84c-1.08,1.33-1.87,3.7-2.62,6.65c-0.41,1.47-0.83,3.12-1.7,4.73c-0.23,0.39-0.44,0.81-0.74,1.18
					c-0.15,0.19-0.28,0.39-0.44,0.57l-0.52,0.52c-0.7,0.69-1.59,1.21-2.52,1.62c-1.88,0.82-4,1.21-5.93,2.18
					c-1.95,0.95-3.41,2.79-4.3,4.91c-0.94,2.11-1.52,4.32-2.3,6.39c-0.77,2.05-1.83,4.05-3.5,5.31c-1.66,1.31-3.71,1.61-5.49,1.72
					c-1.81,0.11-3.48,0.05-4.98,0.28c-1.49,0.21-2.82,0.68-3.75,1.42c-0.94,0.74-1.49,1.66-1.74,2.46c-0.27,0.8-0.22,1.48-0.13,1.91
					c0.09,0.44,0.21,0.65,0.18,0.66c0,0-0.15-0.2-0.26-0.64c-0.12-0.43-0.19-1.14,0.06-1.97c0.24-0.83,0.79-1.8,1.75-2.59
					c0.97-0.79,2.33-1.29,3.85-1.52c1.53-0.25,3.22-0.21,5-0.33c1.76-0.13,3.72-0.44,5.28-1.68c1.58-1.2,2.6-3.12,3.36-5.15
					c0.77-2.04,1.34-4.26,2.31-6.42c0.9-2.16,2.45-4.11,4.49-5.09c2.01-1,4.13-1.38,5.96-2.17c0.91-0.39,1.76-0.89,2.43-1.54
					l0.5-0.49c0.15-0.17,0.28-0.36,0.42-0.54c0.3-0.35,0.5-0.75,0.73-1.13c0.85-1.56,1.29-3.19,1.72-4.64
					c0.78-2.94,1.63-5.35,2.78-6.67c0.25-0.35,0.54-0.61,0.79-0.83c0.12-0.11,0.23-0.22,0.34-0.3c0.12-0.07,0.22-0.14,0.32-0.2
					C484.85,203.97,485.05,203.85,485.06,203.86z"/>
			</g>
		</g>
		<g>
			<g>
				<path class="st9" d="M485.26,180.87c0.01,0,0.03,0.23,0.04,0.67c0.01,0.44-0.05,1.09-0.23,1.9c-0.39,1.62-1.57,3.85-3.79,5.86
					c-1.1,1.01-2.42,1.99-3.93,2.87c-1.5,0.89-3.16,1.74-4.86,2.7c-1.69,0.96-3.44,2.05-4.97,3.5c-1.55,1.43-2.72,3.3-3.76,5.29
					c-1.06,1.98-2,4-3.26,5.75c-0.63,0.87-1.34,1.67-2.13,2.35c-0.79,0.68-1.65,1.23-2.53,1.69c-1.76,0.91-3.55,1.48-5.21,2
					c-1.66,0.51-3.22,0.97-4.57,1.54c-1.36,0.56-2.54,1.2-3.49,1.87c-0.95,0.67-1.68,1.38-2.19,2.02c-1.04,1.28-1.26,2.21-1.31,2.18
					c-0.01,0,0.06-0.22,0.22-0.63c0.18-0.4,0.46-0.99,0.97-1.65c0.5-0.67,1.23-1.4,2.18-2.11c0.96-0.7,2.14-1.36,3.51-1.95
					c1.37-0.59,2.93-1.07,4.58-1.6c1.65-0.53,3.42-1.11,5.14-2.01c0.85-0.45,1.69-0.99,2.45-1.65c0.76-0.66,1.45-1.44,2.06-2.29
					c1.24-1.71,2.16-3.71,3.23-5.71c1.05-2,2.25-3.93,3.85-5.39c1.58-1.48,3.35-2.57,5.06-3.53c1.71-0.96,3.37-1.79,4.87-2.66
					c1.5-0.86,2.81-1.81,3.9-2.79c2.21-1.96,3.4-4.11,3.83-5.69C485.34,181.8,485.2,180.86,485.26,180.87z"/>
			</g>
		</g>
		<g>
			<g>
				<path class="st9" d="M437.99,199.53c-0.01,0-0.03-0.05-0.07-0.15c-0.03-0.1-0.1-0.25-0.15-0.46c-0.09-0.42-0.15-1.07,0.08-1.87
					c0.43-1.58,2.15-3.56,4.93-4.55c1.38-0.47,2.95-0.76,4.58-1.19c1.61-0.43,3.37-1.04,4.68-2.39c0.65-0.67,1.2-1.46,1.66-2.33
					c0.45-0.88,0.81-1.82,1.16-2.8c0.7-1.94,1.28-4.05,2.47-5.97c1.18-1.93,3.09-3.28,5.08-3.95c1.98-0.73,3.97-1.05,5.83-1.48
					c1.86-0.4,3.59-0.93,5.07-1.73c1.45-0.83,2.61-1.92,3.43-3.09c1.68-2.33,2.12-4.73,2.18-6.31c0.04-1.61-0.22-2.48-0.17-2.49
					c0,0,0.31,0.86,0.32,2.49c-0.01,1.6-0.41,4.05-2.1,6.47c-0.83,1.2-2,2.35-3.5,3.22c-1.51,0.84-3.28,1.38-5.15,1.8
					c-1.86,0.44-3.84,0.77-5.77,1.48c-1.94,0.67-3.74,1.94-4.87,3.79c-1.14,1.85-1.73,3.93-2.44,5.89
					c-0.35,0.98-0.73,1.94-1.19,2.84c-0.48,0.9-1.05,1.72-1.74,2.42c-1.39,1.41-3.23,2.03-4.86,2.45c-1.66,0.42-3.21,0.69-4.57,1.13
					c-2.7,0.92-4.41,2.81-4.87,4.32c-0.25,0.76-0.22,1.39-0.15,1.8C437.94,199.31,438.01,199.52,437.99,199.53z"/>
			</g>
		</g>
		<g>
			<g>
				<path class="st9" d="M482.38,241.55c0.01,0,0.03,0.17,0.05,0.49c0.02,0.32-0.01,0.8-0.14,1.41c-0.27,1.2-1.2,2.84-2.94,4.21
					c-0.86,0.69-1.89,1.33-3.09,1.83c-1.19,0.51-2.5,0.91-3.88,1.34c-1.37,0.43-2.81,0.88-4.21,1.54c-1.41,0.65-2.71,1.59-3.83,2.79
					c-1.14,1.19-2.12,2.49-3.2,3.64c-1.08,1.15-2.31,2.11-3.59,2.81c-2.56,1.41-5.22,1.9-7.4,1.93c-2.2,0.02-3.95-0.44-5.1-0.85
					c-0.58-0.2-1.01-0.4-1.29-0.55c-0.29-0.14-0.43-0.22-0.43-0.24c0.01-0.01,0.17,0.04,0.46,0.16c0.29,0.13,0.73,0.3,1.31,0.48
					c1.15,0.36,2.88,0.77,5.04,0.71c2.14-0.06,4.74-0.57,7.23-1.96c1.24-0.7,2.42-1.62,3.48-2.75c1.06-1.13,2.04-2.43,3.2-3.64
					c1.14-1.23,2.51-2.22,3.95-2.87c1.44-0.67,2.89-1.12,4.27-1.54c1.38-0.42,2.68-0.81,3.85-1.29c1.17-0.48,2.19-1.09,3.04-1.75
					c1.72-1.31,2.65-2.87,2.97-4.02C482.45,242.24,482.32,241.55,482.38,241.55z"/>
			</g>
		</g>
	</g>
	<g>
		<path class="st6" d="M478.56,138.37l-6.48,0.15c-0.43,2.18-1.47,3.68-1.47,3.68c-5.42-9.41-9.63-22.02-10.67-27.09
			c0.15-0.51,0.33-1.07,0.56-1.69c0.26-0.72,0.04-2.09-0.09-2.85c-0.18-1.13-0.5-2.65-0.59-3.35c-0.29-2.14-0.63-2.48-1.38-2.24
			c-1.02,0.33,0.42,6.01-0.42,6.14c-0.45,0.07-0.99-1.88-1.15-3.48c-0.16-1.6-0.88-6.51-1.41-6.84c-0.77-0.48-1.45,0.28-1.25,1.87
			c0.2,1.61,0.45,6.41-0.4,6.48c-0.83,0.06-1.53-8.09-1.53-8.09s0.13-1.77-0.85-1.73c-1.76,0.08-0.39,8.67-0.23,9.48
			c0.11,0.57-0.81,0.67-0.89,0.06c-0.08-0.63-0.51-8.15-2.3-8.09c-1.38,0.05,1.07,7.08,0.29,8.71c-0.77,1.63-1.31-5.54-2.63-5.44
			c-0.49,0.04-0.85,0.13,0.05,4.19c0.48,2.18,1.9,6.19,3.15,9.51c2.09,11.25,11.24,47.23,25.59,40.64
			c8.03-3.69,11.29-20.02,11.29-20.02L478.56,138.37z"/>
		<g>
			<g>
				<path class="st7" d="M450.89,109.37c0,0,0.07,0.01,0.19-0.03c0.11-0.03,0.33-0.17,0.29-0.45c-0.02-0.48-0.09-1.19-0.21-2.1
					c-0.08-0.92-0.36-2.01-0.36-3.32c-0.01-0.65,0.01-1.35,0.04-2.09c0.02-0.37,0.03-0.76,0.11-1.12c0.06-0.35,0.3-0.76,0.57-0.71
					l0.03,0.01l0.01,0c0.28-0.01,0.49,0.2,0.58,0.53c0.1,0.32,0.12,0.69,0.1,1.04l0,0.01l0,0.01c0.18,1.99,0.38,4.17,0.83,6.5
					c0.06,0.29,0.13,0.58,0.22,0.88c0.05,0.15,0.1,0.3,0.16,0.45c0.04,0.08,0.07,0.15,0.13,0.23c0.06,0.07,0.13,0.19,0.33,0.2
					c0.32-0.02,0.42-0.27,0.49-0.41c0.07-0.16,0.11-0.32,0.15-0.48c0.07-0.32,0.1-0.63,0.13-0.95c0.09-1.27,0.04-2.57-0.05-3.89
					c-0.03-0.67-0.2-1.34-0.08-1.95c0.05-0.3,0.18-0.6,0.38-0.73c0.1-0.06,0.21-0.07,0.33-0.04c0.06,0.02,0.12,0.04,0.18,0.08
					c0.05,0.05,0.04,0.03,0.09,0.11c0.26,0.56,0.39,1.28,0.54,1.96c0.14,0.69,0.26,1.39,0.37,2.1c0.11,0.71,0.21,1.43,0.29,2.15
					c0.07,0.72,0.17,1.48,0.36,2.21c0.09,0.37,0.2,0.74,0.35,1.1c0.08,0.18,0.16,0.36,0.32,0.55c0.06,0.08,0.24,0.23,0.47,0.17
					c0.22-0.07,0.28-0.25,0.32-0.35c0.13-0.45,0.09-0.82,0.08-1.21c-0.02-0.39-0.05-0.77-0.08-1.15c-0.06-0.66-0.12-1.3-0.14-1.94
					c-0.01-0.32-0.01-0.64,0.02-0.94c0.02-0.15,0.04-0.3,0.09-0.41c0.02-0.06,0.05-0.1,0.07-0.12c0.01-0.01,0.02-0.01,0.03-0.02
					l0.1-0.03c0.52-0.21,0.69,0.51,0.83,1.08c0.12,0.6,0.2,1.23,0.32,1.84c0.2,1.23,0.47,2.44,0.6,3.62
					c0.06,0.58,0.1,1.18-0.07,1.68c-0.18,0.56-0.37,1.12-0.55,1.67l-0.02,0.05l0.01,0.05c0.95,4.19,2.26,7.93,3.48,11.25
					c1.23,3.32,2.46,6.19,3.55,8.54c1.08,2.35,2.06,4.16,2.73,5.39c0.34,0.59,0.61,1.05,0.81,1.39c0.19,0.31,0.29,0.47,0.3,0.47
					c0.01-0.01-0.07-0.18-0.24-0.5c-0.19-0.35-0.43-0.82-0.75-1.42c-0.63-1.25-1.57-3.08-2.62-5.44c-1.05-2.36-2.25-5.23-3.45-8.55
					c-1.19-3.32-2.48-7.08-3.41-11.22l0,0.1c0.18-0.54,0.36-1.09,0.55-1.65c0.21-0.64,0.15-1.26,0.1-1.86
					c-0.14-1.22-0.39-2.4-0.6-3.63c-0.12-0.61-0.19-1.23-0.32-1.87c-0.07-0.32-0.14-0.64-0.32-0.96c-0.08-0.16-0.21-0.34-0.43-0.43
					c-0.22-0.09-0.44-0.07-0.61-0.02l-0.13,0.04c-0.06,0.03-0.13,0.06-0.18,0.1c-0.1,0.09-0.16,0.18-0.2,0.28
					c-0.08,0.19-0.11,0.36-0.13,0.53c-0.04,0.34-0.04,0.67-0.03,1c0.02,0.66,0.09,1.31,0.14,1.97c0.03,0.38,0.06,0.76,0.08,1.13
					c0.01,0.36,0.03,0.76-0.06,1.05c-0.02,0.08-0.06,0.07-0.01,0.11l0,0c0-0.03,0.01,0.04,0,0.03l0-0.01c0-0.01,0-0.02,0-0.03
					c0-0.01,0.02-0.03,0.01-0.04c-0.01,0-0.02-0.01-0.05-0.04c-0.09-0.1-0.17-0.26-0.24-0.42c-0.14-0.33-0.24-0.68-0.33-1.03
					c-0.18-0.71-0.28-1.42-0.35-2.16c-0.09-0.73-0.19-1.45-0.3-2.17c-0.11-0.71-0.23-1.42-0.38-2.12c-0.16-0.7-0.26-1.38-0.59-2.08
					c-0.02-0.07-0.16-0.23-0.24-0.27c-0.09-0.05-0.18-0.09-0.29-0.12c-0.21-0.06-0.47-0.03-0.66,0.09
					c-0.39,0.26-0.51,0.66-0.58,1.01c-0.06,0.36-0.05,0.72-0.01,1.07c0.04,0.33,0.07,0.66,0.1,0.99c0.1,1.31,0.15,2.6,0.07,3.83
					c-0.02,0.31-0.05,0.61-0.11,0.9c-0.03,0.14-0.07,0.28-0.12,0.4c-0.02,0.06-0.06,0.11-0.09,0.15c-0.03,0.06-0.05-0.01-0.05,0.09
					c0.04-0.08,0-0.04-0.03-0.1c-0.03-0.04-0.06-0.11-0.09-0.16c-0.06-0.13-0.1-0.26-0.15-0.4c-0.09-0.28-0.15-0.56-0.22-0.85
					c-0.46-2.29-0.68-4.47-0.88-6.45l0,0.02c0.02-0.4-0.01-0.78-0.13-1.16c-0.06-0.18-0.15-0.37-0.3-0.52
					c-0.15-0.15-0.38-0.22-0.58-0.21l0.04,0c-0.31-0.06-0.54,0.13-0.67,0.32c-0.13,0.19-0.19,0.4-0.24,0.6
					c-0.09,0.41-0.08,0.8-0.1,1.17c-0.03,0.75-0.03,1.45-0.01,2.11c0.02,1.33,0.32,2.43,0.43,3.33c0.14,0.9,0.24,1.61,0.28,2.08
					c0.05,0.22-0.13,0.37-0.23,0.41C450.95,109.35,450.89,109.36,450.89,109.37z"/>
			</g>
		</g>
	</g>
	<path class="st6" d="M400.19,149.09c0,0-2.15-0.1-4.51,0.52c-4.02,1.06-10.96,5.26-11.25,10.46h5.04c0,0-2.82,6.01-1.99,5.45
		c2.15-1.44,6.44-5.8,6.44-5.8L400.19,149.09z"/>
	<g>
		<g>
			<g>
				<path class="st3" d="M468.95,58.65c-0.11,0.01-0.57-4.16-1.02-9.31c-0.45-5.15-0.73-9.33-0.62-9.34
					c0.11-0.01,0.57,4.16,1.02,9.31C468.78,54.45,469.06,58.64,468.95,58.65z"/>
			</g>
		</g>
		<g>
			<g>
				<path class="st3" d="M491.06,40.25c0.09,0.06-3.31,5.01-7.61,11.04c-4.29,6.03-7.85,10.87-7.94,10.8
					c-0.09-0.06,3.31-5.01,7.61-11.04C487.42,45.02,490.97,40.19,491.06,40.25z"/>
			</g>
		</g>
		<g>
			<g>
				<path class="st3" d="M500.25,62.65c0.02,0.11-3.95,1.02-8.88,2.03c-4.93,1.01-8.94,1.74-8.96,1.63
					c-0.02-0.11,3.95-1.02,8.88-2.03C496.21,63.27,500.22,62.54,500.25,62.65z"/>
			</g>
		</g>
	</g>
</g>
<g>
	<g>
		<path class="st4" d="M235.51,169.57l-27.52,141.51l-3.6,18.53l183.75-0.91c8.25-0.04,15.55-7.36,18.21-18.24l32.58-133.6
			c2.01-8.26-2.41-16.85-8.67-16.84l-185.98,0.2C240.17,160.21,236.58,164.05,235.51,169.57z"/>
	</g>
	<g class="st10">
		<path d="M235.51,169.57l-27.52,141.51l-3.6,18.53l183.75-0.91c8.25-0.04,15.55-7.36,18.21-18.24l32.58-133.6
			c2.01-8.26-2.41-16.85-8.67-16.84l-185.98,0.2C240.17,160.21,236.58,164.05,235.51,169.57z"/>
	</g>
	<g>
		<path class="st4" d="M370.5,301.49l-19.45-156.78c-0.8-6.42-5.91-11.22-11.96-11.2l-42.66,0.14c-3.16,0.01-6.18,1.35-8.43,3.74
			l-20.26,21.53l-118.65,0.62c-7.25,0.04-12.82,6.9-11.86,14.61l18.06,144.9c0.8,6.41,5.91,11.2,11.94,11.19l206.78-0.41
			c23.03,0.48,25.23-6.32,25.23-6.32C372.86,329.36,370.51,301.51,370.5,301.49z"/>
	</g>
	<g class="st10">
		<polygon class="st11" points="281.34,270.12 274.37,277.61 220.66,229.29 227.63,221.8 		"/>
		<polygon class="st11" points="271.44,220.14 279.15,227.07 230.55,279.27 222.85,272.33 		"/>
	</g>
</g>
<g>
	<g>
		<g>
			<g>
				<path class="st4" d="M400.03,67.79c-0.5-0.21-0.85-0.7-0.88-1.27l-0.31-7.23c-0.02-0.45,0.17-0.89,0.52-1.18
					c0.35-0.29,0.82-0.4,1.26-0.29c1.16,0.27,2.44,0.02,3.51-0.69c0.99-0.66,1.65-1.63,1.82-2.66c0.17-1.03-0.15-2.17-0.87-3.13
					c-0.77-1.02-1.92-1.72-3.07-1.85c-2.34-0.27-4.87,1.53-5.53,3.92c-0.21,0.77-1.01,1.23-1.78,1.02
					c-0.79-0.22-1.23-1.01-1.02-1.78c1.02-3.77,4.91-6.48,8.66-6.05c1.95,0.22,3.79,1.31,5.05,2.98c1.2,1.59,1.72,3.54,1.42,5.34
					c-0.3,1.83-1.42,3.51-3.07,4.61c-1.2,0.8-2.57,1.24-3.94,1.29l0.24,5.57c0.03,0.8-0.59,1.48-1.39,1.51
					C400.44,67.91,400.22,67.87,400.03,67.79z"/>
			</g>
		</g>
		<g>
			<g>
				<path class="st4" d="M402.16,70.74c0.04,0.65-0.45,1.22-1.1,1.27c-0.65,0.04-1.22-0.45-1.27-1.1c-0.04-0.65,0.45-1.22,1.1-1.27
					C401.55,69.59,402.11,70.08,402.16,70.74z"/>
			</g>
		</g>
	</g>
	<g>
		<g>
			<g>
				<path class="st3" d="M375.02,57.6c0.01,0,0.03-0.16,0.07-0.47c0.04-0.34,0.09-0.8,0.15-1.39c0.03-0.62,0.19-1.36,0.38-2.24
					c0.1-0.44,0.16-0.92,0.32-1.41c0.15-0.49,0.31-1.02,0.48-1.57c0.75-2.19,1.92-4.81,3.87-7.42c1.94-2.6,4.67-5.17,8.17-7.12
					c1.73-1.03,3.7-1.75,5.77-2.38c2.1-0.5,4.33-0.92,6.65-0.87c1.16-0.06,2.34,0.11,3.53,0.21c0.6,0.06,1.18,0.22,1.78,0.32
					c0.6,0.11,1.2,0.23,1.79,0.43c2.4,0.62,4.74,1.75,6.96,3.16c4.47,2.81,8.23,7.38,10.29,12.92c1.03,2.77,1.53,5.81,1.53,8.88
					c0.06,3.08-0.53,6.2-1.63,9.14l-0.35,0.89l-0.05,0.12l0.05,0.11c1.95,4.5,3.87,8.91,5.72,13.18l0.33-0.37
					c-4.02-1.54-7.92-3.04-11.66-4.48l-0.14-0.06l-0.11,0.11c-3.23,3.13-7.1,5.25-11.01,6.36c-3.92,1.11-7.87,1.16-11.47,0.52
					c-3.6-0.64-6.84-2.02-9.55-3.79c-2.71-1.77-4.89-3.92-6.56-6.11c-1.66-2.21-2.76-4.48-3.59-6.51c-0.73-2.07-1.18-3.91-1.39-5.43
					c-0.09-0.76-0.17-1.44-0.24-2.02c-0.02-0.58-0.03-1.08-0.04-1.49c-0.01-0.38-0.02-0.68-0.03-0.91
					C375.03,57.7,375.02,57.6,375.02,57.6c-0.01,0-0.01,0.1-0.02,0.31c0,0.23-0.01,0.53-0.01,0.91c0,0.41,0,0.91,0,1.5
					c0.06,0.59,0.13,1.28,0.21,2.04c0.19,1.54,0.62,3.4,1.33,5.5c0.81,2.06,1.9,4.36,3.57,6.62c1.68,2.23,3.87,4.43,6.61,6.24
					c2.73,1.81,6.02,3.23,9.68,3.9c3.65,0.66,7.66,0.62,11.66-0.49c3.98-1.11,7.93-3.26,11.23-6.45l-0.26,0.05
					c3.74,1.44,7.63,2.95,11.65,4.5l0.59,0.23l-0.26-0.6c-1.85-4.27-3.77-8.69-5.72-13.18l0,0.23l0.36-0.91
					c1.12-3.01,1.73-6.2,1.66-9.34c0-3.14-0.51-6.24-1.57-9.07c-2.11-5.66-5.96-10.31-10.52-13.16c-2.27-1.43-4.65-2.57-7.1-3.19
					c-0.6-0.2-1.21-0.32-1.82-0.43c-0.61-0.1-1.21-0.26-1.82-0.32c-1.22-0.1-2.41-0.26-3.59-0.2c-2.36-0.05-4.63,0.4-6.76,0.91
					c-2.1,0.65-4.1,1.39-5.84,2.45c-3.54,2-6.29,4.63-8.23,7.28c-1.96,2.66-3.1,5.32-3.83,7.54c-0.16,0.56-0.32,1.09-0.46,1.59
					c-0.15,0.5-0.2,0.99-0.29,1.43c-0.17,0.89-0.31,1.64-0.33,2.26c-0.04,0.6-0.08,1.06-0.1,1.4
					C375.01,57.43,375.01,57.6,375.02,57.6z"/>
			</g>
		</g>
	</g>
</g>
</svg>
